<svg width="1980" height="63" fill="none" xmlns="http://www.w3.org/2000/svg"><g clip-path="url(#a)"><mask id="b" style="mask-type:alpha" maskUnits="userSpaceOnUse" x="-1" y="0" width="1980" height="63"><path d="M1979 0H-1v63h1980V0Z" fill="#F5C956"/></mask><g mask="url(#b)" fill-rule="evenodd" clip-rule="evenodd"><path d="M0 0h1035s299.49-6.834 496-3c205 4 447.25 3 447.25 3v38c-256.56-35.517-402.96-32.005-666.75-.296-258.6 29.657-404.562 30.117-666.75 0C389.563.42 265.995-2.293 0 38V0Z" fill="#FFF888"/><path d="M1978.75 0H0v28.8c251.559-34.825 413.851-31.092 672.5 0 253.556 29.077 396.67 29.529 653.75 0 250.21-36.559 391.69-40.307 652.5-.8V0Z" fill="#F5C956"/></g></g><defs><clipPath id="a"><path fill="#fff" d="M0 0h1979v63H0z"/></clipPath></defs></svg>