<svg width="64" height="61" viewBox="0 0 64 61" fill="none" xmlns="http://www.w3.org/2000/svg">
<path d="M62.7236 17.8352C61.6014 17.3146 60.4725 16.8059 59.3656 16.2571C60.1998 15.0114 60.9363 13.7151 61.594 12.3751C61.9665 11.6157 61.8313 10.7288 61.0068 10.2756C60.4504 9.97002 59.6315 10.0188 59.1189 10.4137C57.245 10.9612 55.4277 11.6512 53.6365 12.3987C53.1753 11.7875 52.6429 11.2055 52.0218 10.6637C43.5979 3.31472 29.904 10.058 26.1972 18.067C18.9401 17.7626 12.8155 14.2982 7.79794 10.0424C7.58232 9.85937 7.34873 9.74995 7.11211 9.68927C6.25149 9.32432 5.10097 9.50181 4.87708 10.5155C3.86449 15.0982 5.24624 19.4189 8.69859 22.7628C8.00962 22.7423 7.32012 22.7159 6.63167 22.6753C6.33285 22.6572 6.08088 22.7015 5.86606 22.7834C4.74283 22.569 3.39441 23.2715 3.88785 24.4316C5.23627 27.601 7.6293 30.0561 10.7944 31.5662C10.4532 31.5693 10.1107 31.5662 9.76447 31.5536C9.55213 31.5456 9.36722 31.573 9.19728 31.6168C8.16841 31.7737 7.29138 32.6807 8.01145 33.6407C10.2456 36.6194 13.3299 38.8239 17.0852 40.2071C14.8764 42.2791 11.7457 43.0252 8.28114 42.7897C8.14518 42.7809 8.01894 42.784 7.9003 42.7972C7.64046 42.8002 7.37484 42.8528 7.11894 42.9792C6.38902 43.3392 6.01409 44.2549 6.52721 44.8767C6.59348 44.9567 6.66645 45.0298 6.73482 45.1067C5.31816 44.9749 3.90832 44.7798 2.49783 44.5104C0.967126 43.8018 -0.935097 45.5605 0.520278 46.6837C3.3721 48.8844 6.57786 50.5226 10.1513 51.757C10.4969 51.8764 10.8045 51.8877 11.0721 51.8289C30.9133 56.3734 48.7386 43.413 54.4929 28.0006C55.026 26.573 55.4498 25.0342 55.7131 23.4611C58.1408 22.6854 60.5252 21.801 62.9062 20.9078C64.5947 20.2742 64.1657 17.9297 62.7236 17.8352ZM50.1972 29.9226C44.0957 43.0387 28.1278 53.3165 11.0276 48.9425C10.836 48.8933 10.6584 48.88 10.4885 48.8832C9.75974 48.6164 9.04741 48.3258 8.35266 48.01C9.75003 48.0856 11.1545 48.1032 12.5669 48.0606C14.4872 48.0018 14.6681 45.7268 13.1047 45.3455C13.0658 45.3256 13.0318 45.3023 12.9908 45.2867C16.3161 44.6292 19.1831 42.9673 21.0812 40.2992C21.6666 39.476 21.1208 38.6997 20.3226 38.3846C20.1684 38.2771 19.9874 38.1853 19.7657 38.1228C16.9869 37.3347 14.5971 36.0278 12.6852 34.2588C14.6327 34.1088 16.5487 33.7657 18.4472 33.307C20.3609 32.8457 19.7157 30.4625 17.9387 30.5757C17.7635 30.5082 17.5702 30.4594 17.3493 30.4438C13.2849 30.1639 10.0059 28.3425 8.07274 25.5175C9.73441 25.5806 11.3974 25.5881 13.0624 25.5887C14.9505 25.5887 15.1581 23.4056 13.692 22.9154C10.1437 20.5898 7.97169 17.4671 7.81933 13.8759C13.2151 17.8947 19.6699 20.8273 27.0766 20.8724C27.5135 20.8749 27.8553 20.7568 28.1126 20.5723C28.5047 20.4316 28.8372 20.1554 28.9961 19.7154C30.9566 14.3089 37.5561 9.57886 44.5659 10.5345C47.3242 10.9114 49.6299 12.1389 51.074 14.154C54.3908 18.7835 52.3551 25.2862 50.1972 29.9226ZM55.5464 16.4121C55.4311 15.974 55.2972 15.5408 55.1333 15.1172C55.6471 14.904 56.1636 14.6995 56.682 14.4995C56.4068 14.9183 56.1215 15.3308 55.8231 15.7378C55.6531 15.9678 55.5711 16.1945 55.5464 16.4121ZM55.9916 20.1228C55.9863 19.344 55.9376 18.5683 55.8197 17.8046C55.9336 17.929 56.0682 18.0458 56.2462 18.1439C56.9691 18.5446 57.7102 18.9121 58.458 19.2683C57.6396 19.5629 56.8173 19.8466 55.9916 20.1228Z" fill="#FFD3BD"/>
<path d="M40.7396 15.1313C38.5393 15.1313 38.5393 18.3316 40.7396 18.3316C42.9407 18.3314 42.9407 15.1313 40.7396 15.1313Z" fill="#FFD3BD"/>
</svg>
