<svg width="64" height="61" viewBox="0 0 64 61" fill="none" xmlns="http://www.w3.org/2000/svg">
<g clip-path="url(#clip0_75_412)">
<path d="M63.8122 2.54698C63.7294 1.73817 63.1355 0.988349 62.0157 0.995248C42.3106 1.12322 22.6572 0.158849 2.95542 0.115967C2.881 0.115967 2.81436 0.125842 2.74557 0.132064C2.68989 0.127195 2.63682 0.115967 2.58042 0.115967C1.55841 0.115967 0.705437 0.915842 0.705437 1.87439V4.33638C0.705437 4.42837 0.720437 4.51765 0.735437 4.60639C0.71063 4.74166 0.69563 4.88289 0.705437 5.03981C1.74317 21.3981 -0.166142 41.2555 0.142942 57.6192C0.145971 57.8 0.180298 57.9613 0.226884 58.1131C0.320633 58.9168 0.91457 59.6813 2.01793 59.7294C21.6995 60.5771 41.3929 59.9135 61.0782 59.5535C62.0333 59.5357 62.606 58.9724 62.8059 58.3033C63.017 58.0375 63.1452 57.6934 63.1407 57.2675C63.0227 45.8152 63.156 31.2553 63.4336 19.1838C63.9338 18.5668 63.9514 17.6334 63.487 16.9929C63.6028 12.2659 63.739 7.60718 63.8905 3.10539C63.8972 2.89788 63.8636 2.71661 63.8122 2.54698ZM21.3147 3.89877C22.6308 3.92556 23.948 3.94828 25.2641 3.97601C25.1231 7.93197 25.2722 11.8766 25.5706 15.8222C24.0349 15.7735 22.4997 15.7182 20.9645 15.6598C21.1265 11.7403 21.1624 7.81834 21.3147 3.89877ZM13.0785 3.75105C14.5748 3.77513 16.0706 3.79745 17.567 3.82491C17.4147 7.71634 17.3774 11.6109 17.2199 15.5022C15.7177 15.4363 14.2156 15.3585 12.7134 15.2821C13.0363 11.4435 13.0756 7.5996 13.0785 3.75105ZM4.45526 4.33638V3.64851C6.08059 3.65839 7.70418 3.67949 9.32864 3.69897C9.32647 7.49693 9.2858 11.2895 8.97744 15.0774C7.56904 14.9957 6.16063 14.9177 4.75223 14.8243C4.75079 14.4358 4.75728 14.0439 4.75295 13.6572C4.76651 13.513 4.76579 13.368 4.74632 13.2238C4.71156 10.4658 4.62545 7.73176 4.45454 5.03913C4.44791 4.93159 4.42007 4.83784 4.39743 4.74099C4.43291 4.61085 4.45526 4.47572 4.45526 4.33638ZM59.3834 56.0695C40.8839 56.4219 22.3752 56.9847 3.87863 56.275C3.74277 44.7093 4.63699 30.3047 4.75093 18.3406C23.0307 19.5523 41.3527 19.7859 59.6721 19.8065C59.4135 31.2731 59.2875 45.2238 59.3834 56.0695ZM59.754 16.29C49.6104 16.2788 39.4651 16.1956 29.3281 15.9249C29.0268 11.9725 28.8751 8.02057 29.0125 4.05839C39.3699 4.28782 49.7261 4.52211 60.0954 4.51413C59.9687 8.33522 59.8551 12.2813 59.754 16.29Z" fill="#94EDCA"/>
<path d="M42.4445 13.38C42.6108 14.0955 43.1924 14.7116 44.2037 14.7116H49.8285C50.2879 14.7116 50.6591 14.5835 50.944 14.3774C51.6126 14.0988 52.1552 13.4806 52.0783 12.7772C51.9048 11.198 51.8909 9.61531 51.8909 8.02922C51.8909 7.85066 51.8601 7.69158 51.8169 7.54115C51.7583 6.70962 51.1613 5.91895 50.0159 5.91895H44.5787C43.8896 5.91895 43.4032 6.20884 43.1073 6.6175C42.4584 6.83394 41.9449 7.36151 41.9537 8.20494C41.967 9.61382 42.1274 11.0165 42.1414 12.4254C42.145 12.8109 42.263 13.1254 42.4445 13.38ZM48.1521 9.43594C48.1609 10.0226 48.1771 10.6085 48.2078 11.1945H45.8481C45.8165 10.6085 45.7807 10.0219 45.7498 9.43594H48.1521Z" fill="#94EDCA"/>
<path d="M57.7034 12.6013V7.67747C57.7034 5.40959 53.9536 5.40959 53.9536 7.67747V12.6013C53.9536 14.8692 57.7034 14.8692 57.7034 12.6013Z" fill="#94EDCA"/>
<path d="M32.2044 21.0423C31.8279 21.0072 31.5181 21.0711 31.2604 21.192C19.7024 20.7744 10.604 31.2499 12.7719 42.0847C14.4601 50.518 23.4762 55.0428 31.9921 54.6649C39.9561 54.3119 47.874 49.746 49.9658 42.2584C51.2013 37.8374 49.8031 33.0592 47.4669 29.1919C44.3035 23.9545 38.3125 21.6156 32.2044 21.0423ZM46.1923 41.8861C44.6433 47.4324 38.2773 50.5316 32.6196 51.1033C26.3665 51.7338 20.3022 49.2774 17.3998 43.9221C12.3601 34.6227 22.1464 22.9886 32.8306 24.8492C33.1932 24.9123 33.5205 24.878 33.8121 24.786C42.1582 26.3326 48.5095 33.593 46.1923 41.8861Z" fill="#94EDCA"/>
<path d="M31.9748 27.4642C31.6733 27.4347 31.4065 27.4628 31.1468 27.5373C27.8231 27.4782 24.686 28.8851 22.496 31.3611C20.2427 33.9068 19.3189 37.2027 19.9586 40.4023C20.7177 44.19 24.5569 48.2655 31.1954 48.2662H31.1961C31.3972 48.2662 31.5975 48.2608 31.7977 48.2524C37.0899 48.0176 41.6227 44.8604 42.8203 40.5714C43.7452 37.2591 42.279 34.1081 41.3225 32.5241C39.5965 29.6644 36.2772 27.8681 31.9748 27.4642ZM38.5483 39.8301C37.8183 42.4437 34.7202 43.8918 31.9733 44.1693C31.6592 44.2009 31.3413 44.2173 31.0299 44.2173C28.2048 44.2173 25.816 42.9204 24.6394 40.7498C23.6584 38.9404 23.8143 36.8041 25.0668 34.8889C26.4033 32.8448 28.654 31.5739 30.9398 31.5739C31.2953 31.5739 31.6539 31.6054 32.0062 31.666C32.2739 31.7135 32.5223 31.7141 32.7691 31.6748C34.8695 32.1214 36.68 33.2939 37.764 34.9164C38.7594 36.4059 39.0304 38.1052 38.5483 39.8301Z" fill="#94EDCA"/>
<path d="M33.3383 33.0638C32.4132 32.6558 31.3234 32.813 30.7733 33.6951C30.2922 34.4657 30.5214 35.6927 31.446 36.1013C32.0627 36.3734 32.4527 36.6227 32.9024 37.0995C33.1778 37.3913 33.3191 37.9286 33.3301 38.2754C33.3996 40.5382 37.1496 40.5449 37.08 38.2754C37.0082 35.9922 35.5274 34.0303 33.3383 33.0638Z" fill="#94EDCA"/>
</g>
<defs>
<clipPath id="clip0_75_412">
<rect width="64" height="60.0261" fill="white" transform="translate(0 0.115967)"/>
</clipPath>
</defs>
</svg>
