<svg width="1980" height="160" fill="none" xmlns="http://www.w3.org/2000/svg"><mask id="a" style="mask-type:alpha" maskUnits="userSpaceOnUse" x="0" y="0" width="1980" height="160"><path d="M1980 0H0v160h1980V0Z" fill="#D9D9D9"/></mask><g mask="url(#a)"><path fill-rule="evenodd" clip-rule="evenodd" d="M1451.97 111.708c-4.57 23.726-7.95 41.292-27.11 41.292-19.86 0-32.17-17.56-48.37-40.661-9.89-14.095-21.22-30.253-36.59-45.743-19.8-19.957-52.54-14.516-87.78-8.66-36.95 6.138-76.64 12.733-107.04-9.008-4.84-3.463-7.81-6.766-9.18-9.91-44.64-3.229-92.4-8.283-146.9-14.977-191.985-22.494-300.35-22.843-495 0C304.547 52.322 196.477 54.562-1 24v138h1980V24C1848.21 4.455 1756.29-1.08 1650.65 5.812c17.15 9.226 27.11 22.913 22.02 43.116-10.29 40.784-64.93 25.79-115.56 11.896-40.81-11.198-79.01-21.68-89.27-1.661-9.22 17.994-12.81 36.652-15.87 52.545Z" fill="#FEFBF4"/></g></svg>