<svg width="64" height="64" viewBox="0 0 64 64" fill="none" xmlns="http://www.w3.org/2000/svg">
<g clip-path="url(#clip0_75_350)">
<path d="M61.2434 2.69883C61.7281 1.67053 61.226 0.122797 59.7293 0.0858513C43.0264 -0.334698 21.4144 0.960462 4.71236 0.320299C4.1851 0.300109 3.7868 0.479206 3.50538 0.759939C2.93375 0.992875 2.4882 1.50558 2.4882 2.3096C2.48051 22.1729 1.6412 42.517 4.42353 62.2432C4.5128 62.8743 4.85067 63.2439 5.27726 63.4093C5.55937 63.7628 5.99283 64.0034 6.58561 64C9.78656 63.9833 14.3871 63.7831 17.5887 63.7657C18.2728 63.7623 18.7465 63.4366 19.0171 62.9881C19.4784 62.7202 19.8129 62.2398 19.8129 61.5417V41.6425C19.8129 41.5545 19.7986 41.4765 19.7884 41.3949C19.7993 41.3208 19.8129 41.2463 19.8129 41.1737C19.8129 40.1207 19.0055 39.5439 18.0575 39.4177C16.7582 39.2446 14.7529 39.2001 13.4467 39.1882C13.3759 38.7738 13.2967 37.6594 13.2232 37.2458C14.4159 36.9556 16.3397 36.8538 17.5888 36.8426C17.7891 36.8412 17.9636 36.8043 18.1279 36.7526C19.0506 36.8099 19.9479 36.2624 19.813 35.0865C19.1616 29.4295 19.1432 24.4842 19.5713 18.8098C21.9262 13.1442 28.127 11.1296 33.8596 11.8486V14.6048C23.575 14.9853 21.6026 25.0782 23.8556 33.9147C23.9122 34.1358 24.0035 34.3179 24.1105 34.4776C24.2349 35.2336 24.7919 35.9059 25.7825 35.9059H30.114V38.7213C28.6815 39.4622 27.1715 39.2535 25.5497 39.4801C25.5305 39.483 25.5149 39.492 25.4963 39.4954C24.5834 39.4509 23.69 40.0045 23.7928 41.1735C24.2308 46.1602 24.4907 56.0741 24.7291 61.0742C24.7706 61.9438 25.3198 62.4759 25.9713 62.6753C26.1847 62.7738 26.4333 62.8302 26.7188 62.8302C38.0351 62.8386 47.9498 63.0394 59.2614 62.5959C59.9176 62.5701 60.3773 62.2507 60.6535 61.819C61.1222 61.5512 61.4694 61.0692 61.4849 60.3711C61.9256 41.1729 61.2672 21.9764 61.2513 2.77808C61.2525 2.75047 61.2448 2.72685 61.2434 2.69883ZM57.9948 59.125C47.5863 59.4897 38.5783 59.3425 28.1656 59.3216C27.97 54.462 27.7464 46.6612 27.4263 42.7018C29.3097 42.3155 31.1088 42.282 32.7561 41.2854C33.3196 40.9444 33.5623 40.4443 33.5852 39.9367C33.6117 39.8118 33.6258 39.6779 33.6258 39.5349V34.1501C33.6258 33.0126 32.7393 32.4475 31.8577 32.4525C31.7165 32.4176 31.5672 32.3938 31.4016 32.3938H27.0998C25.518 25.5817 26.4114 17.7736 35.1475 18.1122C36.0388 18.1467 36.5723 17.6223 36.7622 16.9711C37.1234 16.689 37.3717 16.2531 37.3717 15.654V10.2691C37.3717 9.12574 36.4769 8.56153 35.5905 8.57293C27.4528 7.19618 19.335 10.055 16.1297 17.9967C15.9783 18.3715 15.9661 18.7057 16.047 18.9941C15.6749 24.0355 15.6607 28.355 16.1282 33.3807C14.5486 33.479 12.2665 33.7391 10.8004 34.3292C9.97637 34.6604 9.39719 35.3774 9.53769 36.2799C9.53632 36.4263 9.54401 36.5742 9.57327 36.7228C9.83408 38.0452 10.0541 40.0768 10.2755 41.4054C10.4133 42.2318 11.3137 42.7299 12.1059 42.6851C12.1387 42.6866 12.168 42.6941 12.2029 42.6941C13.3361 42.6941 15.1703 42.7031 16.2996 42.7702V60.2758C13.9003 60.3197 10.0983 60.4277 7.69947 60.4682C5.17645 41.8531 5.94324 22.6227 5.99351 3.87025C21.8594 4.38227 42.1234 3.28832 57.7437 3.55957C57.7764 22.0823 58.3748 40.6034 57.9948 59.125Z" fill="#B3D0FD"/>
</g>
<defs>
<clipPath id="clip0_75_350">
<rect width="64" height="64" fill="white"/>
</clipPath>
</defs>
</svg>
