<svg width="120" height="120" fill="none" xmlns="http://www.w3.org/2000/svg"><g clip-path="url(#a)" fill="#FFD3BD"><path d="M67.729.737a3.233 3.233 0 0 0-1.308 0C56.652-.986 46.912.113 38.698 6.164c-8.1 5.965-12.79 16.164-13.35 26.044-1.16 20.526 19.86 35.617 33.911 46.933.101.082.21.138.313.206.194.308.46.568.768.783a45.26 45.26 0 0 1-1.864 5.39c-.417.984-.488 2.048-.07 2.927.394 1.04 1.292 1.892 2.707 1.972 1.94.11 3.874.246 5.812.387 1.209 5.335 5.108 8.83 9.639 11.765 5.759 3.727 9.647 5.784 5.428 12.879-2.019 3.393 3.262 6.465 5.274 3.083 3.458-5.813 4.413-11.965-1.068-16.794-4.203-3.702-10.1-5.528-12.568-10.437 1.732.124 3.462.242 5.195.34.152.01.287-.008.427-.018.063.004.12.019.185.019 1.543 0 3.216-1.393 3.055-3.055-.323-3.327-.914-6.496-2.112-9.564.056-.064.114-.124.167-.195C97.79 55.545 105.18 8.156 67.73.737Zm-2.395 83.846c.44-1.227.84-2.466 1.168-3.735.016-.066.016-.122.028-.185 2.678.02 5.355.086 8.032.202.627 1.432 1.053 2.938 1.346 4.473-3.525-.235-7.048-.51-10.574-.755Zm10.602-9.774c-4.235-.223-8.472-.263-12.711-.27-12.049-9.675-26.732-20.14-31.057-35.741-2.538-9.164 1.505-19.059 7.81-25.7 6.827-7.192 17.254-8.073 26.43-6.166.393.082.757.078 1.1.033 31.152 7.416 22.615 47.81 8.428 67.844Z"/><path d="M58.628 9.766c-4.045-.384-4.009 5.92 0 6.301 12.05 1.144 19.117 10.987 18.586 22.683-.183 4.064 6.118 4.046 6.301 0 .698-15.383-9.525-27.524-24.887-28.984Z"/></g><defs><clipPath id="a"><path fill="#fff" d="M0 0h120v120H0z"/></clipPath></defs></svg>