<svg width="1980" height="107" fill="none" xmlns="http://www.w3.org/2000/svg"><mask id="a" style="mask-type:alpha" maskUnits="userSpaceOnUse" x="0" y="0" width="1980" height="107"><path d="M1980 0H0v107h1980V0Z" fill="#D9D9D9"/></mask><g mask="url(#a)" fill-rule="evenodd" clip-rule="evenodd"><path d="M-21-150.823V77.983c1.945.057 3.876.109 5.787.146a2668.132 2668.132 0 0 1 36.968-5.264c3.78-1.952 7.067-4.584 9.732-8.115 8.493-11.252 14.34-22.582 19.442-32.465 8.363-16.2 14.72-28.516 27.43-30.235 12.255-1.658 15.94 9.302 20.92 24.104 3.335 9.916 7.25 21.556 14.709 32.284 1.005 1.445 2.122 2.631 3.345 3.587a1787.086 1787.086 0 0 1 34.637-2.77c2.762-1.039 5.618-2.157 8.559-3.309 24.598-9.63 55.082-21.563 85.396-8.679 7.349 3.123 12.378 5.782 15.568 8.043 121.415-.077 233.778 14.409 384.257 36.395 262.188 30.117 408.15 29.656 666.75 0 263.79-31.71 410.19-35.517 666.75 0 260.38 35.876 406.37 38.085 666.75 0v-242.528h-647.63v-190.099c-197.15-33.056-307.69-31.138-504.84 0-194.26 30.826-305.11 27.521-504.844 0-195.802-25.74-306.322-26.139-504.843 0-193.22 32.36-303.439 34.971-504.843 0v190.099Z" fill="#B3D0FD"/><path d="M1981-154.999v237.8c-260.81-39.508-403.54-36.559-653.75 0-257.08 29.529-400.194 29.077-653.75 0C510.421 63.196 393.101 54.47 265.615 59.424c-1.504-2.948-7.301-6.892-19.69-12.158-30.314-12.884-60.798-.95-85.396 8.68-21.148 8.278-37.944 14.854-46.541 2.491-7.459-10.728-11.374-22.368-14.71-32.284C94.3 11.352 90.615.392 78.359 2.05 65.649 3.77 59.293 16.084 50.93 32.285c-5.101 9.883-10.95 21.213-19.442 32.465C20.546 79.247-.876 78.596-23.93 77.895c-24.171-.735-50.137-1.524-67.702 15.033-1.665 1.57-2.913 2.976-3.78 4.229C-284.382 117.655-419.662 114.151-634 82.8v-237.799H1v-186.393c193.31-32.41 301.689-30.53 495 0 190.473 30.226 299.159 26.985 495 0 191.98-25.237 300.35-25.629 495 0 189.45 31.73 297.52 34.29 495 0v186.393Z" fill="#304566"/></g></svg>