<svg width="215" height="215" fill="none" xmlns="http://www.w3.org/2000/svg"><g clip-path="url(#a)" fill="#94EDCA"><path d="M92.67 81.103c-34.484-6.958-53.025-45.691-34.45-76.78 1.92-3.212 5.876-1.791 7.02.914.958.936 1.44 2.322.833 3.982-.135.37-.25.744-.376 1.115a4.25 4.25 0 0 1 .72 2.158c.337 6.103 4.571 8.456 10.328 7.939a4.31 4.31 0 0 1 1.933.262c.028 0 .054-.009.083-.008 12.701-.161 23.733 5.072 30.015 16.337 5.912 10.602 3.919 23.514-1.092 34.047 32.232 38.419 60.914 83.984 50.519 136.198-.014.071-.049.119-.066.187 1.071 3.295-3.931 6.767-7.206 3.735-37.455-34.66-50.517-81.285-58.26-130.085Zm-14.393-52.29a3.961 3.961 0 0 1-1.591-.292c-4.565.219-9.093-.427-12.789-3.42-.357-.289-.668-.606-.983-.918-1.55 22.686 11.322 44.625 36.776 44.8 10.041-18.764 1.629-40.463-21.413-40.17Zm27.968 53.28c-.191 9.912.921 19.601 3.013 29.075 5.124-1.176 9.806-3.364 13.96-6.534-5.339-7.795-11.088-15.315-16.973-22.54Zm23.211 32.151a4.163 4.163 0 0 1-1.468 1.369c-4.956 2.794-10.35 4.558-15.828 6.029-.049.013-.094.011-.142.022 8.15 27.202 23.79 52.578 39.565 76.202 3.911-30.236-6.467-58.277-22.127-83.622Z"/><path d="M92.214 50.94c-.473-5.406-3.06-8.868-8.334-10.387-5.049-1.455-2.4-9.152 2.627-7.706 7.75 2.23 12.98 8.41 13.688 16.473.453 5.18-7.521 6.841-7.981 1.62Z"/></g><defs><clipPath id="a"><path fill="#fff" transform="scale(-1 1) rotate(-18.826 57.3 674.979)" d="M0 0h169.198v169.198H0z"/></clipPath></defs></svg>