<svg width="1980" height="100" fill="none" xmlns="http://www.w3.org/2000/svg"><path fill-rule="evenodd" clip-rule="evenodd" d="M200.978 100c-12.727-.1-20.653-11.417-31.066-26.285-6.381-9.11-13.695-19.554-23.619-29.566-12.786-12.9-33.927-9.383-56.679-5.598-23.854 3.968-49.48 8.231-69.106-5.822-7.784-5.574-8.07-10.503-3.58-14.818A5275.82 5275.82 0 0 1 0 15v85h200.978Zm17.668-26.69C215.71 88.579 213.532 99.9 201.31 100H1980.3V15.5c-197.15-33.055-290.62-24.56-487.77 6.577-194.26 30.826-305.11 27.522-504.844 0-195.802-25.74-306.322-26.14-504.843 0-46.478 7.784-86.88 13.437-124.243 17.048-9.314 16.014-35.093 11.151-61.38 4.194a907.944 907.944 0 0 1-70.194-.05c-4.6 10.388-6.625 20.919-8.38 30.04Z" fill="#FFD3BD"/><path fill-rule="evenodd" clip-rule="evenodd" d="M203.15 99.892H1980V15.5c-197.48 34.29-305.55 31.73-495 0-194.65-25.63-303.02-25.238-495 0-195.841 26.985-304.527 30.225-495 0C402.335.865 329.186-7.187 256.843-8.034l-.965 1.524s117.253-8.372 105.261 39.24c-6.639 26.362-41.92 16.67-74.608 7.689-26.347-7.238-51.011-14.014-57.635-1.074-5.954 11.631-8.274 23.691-10.25 33.965-2.782 14.469-4.883 25.393-15.496 26.582Zm-4.135 0c-11.602-1.188-19.236-12.089-29.103-26.177-6.381-9.11-13.695-19.554-23.619-29.566-12.786-12.9-33.927-9.383-56.679-5.598-23.854 3.968-49.48 8.231-69.106-5.822-12.568-9-5.588-16.316 9.477-22.085A2635.233 2635.233 0 0 0 0 15.5v84.392h199.015Z" fill="#304566"/></svg>