<svg width="28" height="30" viewBox="0 0 28 30" fill="none" xmlns="http://www.w3.org/2000/svg">
<path d="M20.7988 0.623851C18.5181 0.209675 16.0525 0 13.4704 0C12.2265 0 10.9545 0.0496582 9.68902 0.147082L9.64542 0.1503C7.23356 0.335808 0.827077 0.827973 0.823733 4.56073C0.823417 4.873 0.8585 5.2061 0.94242 5.54632C1.19254 12.2358 3.07413 21.9051 5.34137 27.9859C5.34856 28.0058 5.35979 28.0212 5.36793 28.0404C5.43841 28.4121 5.68033 28.751 6.14353 28.8975C11.5953 30.6184 17.523 30.0625 23.05 29.0067C23.3217 28.9548 23.5203 28.835 23.6555 28.6773C23.8356 28.5479 23.9836 28.3562 24.0708 28.0954C26.2015 21.6834 27.0378 11.4163 27.173 4.66093C27.173 4.63531 27.1769 4.61014 27.1762 4.58452C27.1435 2.26131 23.6902 1.14832 20.7988 0.623851ZM9.8462 2.76717L9.89011 2.76395C11.0891 2.67139 12.2935 2.62476 13.47 2.62476C15.8952 2.62476 18.2035 2.82068 20.33 3.20627C22.5063 3.6012 24.0196 4.2436 24.471 4.6396C24.4339 4.68062 24.3836 4.73078 24.3163 4.7899C22.5873 6.30514 18.8263 7.17388 13.9957 7.17388C13.8144 7.17388 13.5978 7.17615 13.3514 7.17855C13.0383 7.18176 12.6761 7.18542 12.2781 7.18542C12.2735 7.18542 12.2688 7.18542 12.2641 7.18542C11.2895 7.18542 8.38547 7.18271 6.17609 6.62164C4.36524 6.1621 3.44792 5.46909 3.44855 4.56294C3.44855 4.5495 3.62377 3.24558 9.8462 2.76717ZM22.0545 26.8629C17.2451 27.7552 12.1238 28.1955 7.36606 26.8593C5.55496 21.9503 3.9905 14.4174 3.43107 8.39312C4.00602 8.68918 4.69335 8.9535 5.53009 9.16576C7.80497 9.74361 10.4708 9.81031 12.2781 9.81031C12.6861 9.81031 13.0573 9.80658 13.3779 9.80343C13.614 9.80103 13.8218 9.79876 13.9969 9.79876C16.7975 9.79876 21.5978 9.49759 24.7763 7.66207C24.4969 13.8134 23.6937 21.7142 22.0545 26.8629Z" fill="#304566"/>
</svg>
