<svg width="90" height="90" fill="none" xmlns="http://www.w3.org/2000/svg"><rect width="90" height="90" rx="45" fill="#FFF8B8"/><g clip-path="url(#a)" fill="#B3D0FD"><path d="M35.733 23.076c-6.892-3.128-17.27 2.778-15.542 11 .97 4.616 5.191 7.956 9.7 8.786 3.904.719 7.495-.992 10.122-3.688-.543 3.853-2.151 7.715-3.724 10.898-2.635 5.333-6.415 11.003-11.44 14.362-1.877 1.254-.116 4.306 1.778 3.04 11.047-7.384 27.35-36.118 9.106-44.398Zm3.628 11.175c-2.22 3.822-5.899 6.073-10.332 4.79-3.788-1.096-6.59-5.257-4.85-8.994 3.305-7.091 12.807-4.552 15.204 1.732.049.783.062 1.567.066 2.353-.029.041-.062.073-.088.119ZM61.792 23.076c-6.892-3.128-17.269 2.778-15.541 11 .969 4.616 5.191 7.956 9.7 8.786 3.903.719 7.495-.992 10.122-3.688-.544 3.853-2.151 7.715-3.724 10.898-2.636 5.333-6.415 11.003-11.44 14.362-1.877 1.254-.116 4.306 1.777 3.04 11.048-7.384 27.351-36.118 9.106-44.398Zm3.629 11.175c-2.22 3.822-5.899 6.073-10.332 4.79-3.788-1.096-6.59-5.257-4.849-8.994 3.158-6.778 11.974-4.754 14.84.923.278 1.05.371 2.116.384 3.223-.014.02-.03.035-.043.058Z"/></g><defs><clipPath id="a"><path fill="#fff" transform="translate(20 20)" d="M0 0h50v50H0z"/></clipPath></defs></svg>