<svg width="100" height="100" fill="none" xmlns="http://www.w3.org/2000/svg"><g clip-path="url(#a)" fill="#FFF8B8"><path d="M5.53 20.01c13.358 10.344 28.129 19.915 45.625 19.915l.273-.002c.178-1.24.116-5.899.055-7.497-.056-1.44.374-3.399 1.46-4.528.555-.575 1.24-.88 1.982-.88.525 0 1.083.15 1.656.447 5.945 3.07 11.627 7.025 17.119 10.85 5.16 3.592 10.495 7.306 16.008 10.253.929.497 1.493 1.297 1.588 2.256.104 1.03-.369 2.151-1.205 2.876-.216.31-.466.568-.758.786-4.78 3.526-9.75 7.631-14.557 11.604-5.744 4.746-11.685 9.653-17.472 13.727-.546.384-1.117.579-1.7.579-1.357 0-2.581-1.11-2.883-2.55a3.551 3.551 0 0 1-.241-.914c-.372-3.288-.55-8.61-.612-10.78C26.17 63.8 12.266 43.814 1.246 25.24a3.207 3.207 0 0 1-.35-.848c-.836-.776-1.103-1.795-.732-2.823.478-1.317 1.875-2.275 3.32-2.275.734 0 1.44.248 2.046.716Zm8.838 14.053C23.12 46.728 34.854 59.115 54.58 59.972c.255.011.507.051.665.105 1.456.105 2.928 1.096 2.937 3.076.007 1.988.078 5.681.206 8.178 4.169-2.974 8.418-6.654 12.536-10.22 3.752-3.249 7.626-6.602 11.409-9.395-4.076-2.409-8.083-5.244-11.963-7.99-4.046-2.863-8.221-5.819-12.47-8.284-.067 2.407-.302 5.977-.709 7.989-.146.722-.496 1.32-1.013 1.733-.558.655-1.336 1.03-2.256 1.08-12.844.715-25.394-3.123-39.554-12.181Z"/><path d="M96.747 57.389c-.02.018-.033.038-.054.057-9.06 7.68-18.01 15.495-27.4 22.773-2.148 1.665-5.195-1.334-3.02-3.019 9.391-7.278 18.34-15.092 27.4-22.774.202-.17.411-.284.624-.37.045-.055.08-.11.133-.163 1.67-1.68 1.836-3.133.134-4.854a2.298 2.298 0 0 1-.333-.43c-9.544-6.635-19.006-13.394-28.839-19.6-2.326-1.469.418-4.746 2.715-3.296 10.047 6.342 19.705 13.26 29.462 20.036.49.338.734.76.812 1.192 2.471 3.19 2.078 6.944-.933 9.97-.222.224-.46.376-.701.478Z"/></g><defs><clipPath id="a"><path fill="#fff" transform="matrix(1 0 0 -1 0 100)" d="M0 0h100v100H0z"/></clipPath></defs></svg>