<svg width="96" height="96" fill="none" xmlns="http://www.w3.org/2000/svg"><g clip-path="url(#a)"><path d="M86.8 49.573c-7.607 4.397-15.472 8.28-23.753 11.232a522.806 522.806 0 0 0 2.452 25.949c.189 1.581-1.028 2.375-2.265 2.34-.674.23-1.438.106-2.089-.616-5.918-6.574-12.087-12.916-18.11-19.395-8.356 3.692-16.597 7.633-25.187 10.767-1.903.696-3.155-1.09-2.915-2.644a2.32 2.32 0 0 1 .25-1.11c3.777-7.645 7.875-15.095 13.126-21.816-6.63-6.643-11.377-14.802-17.334-22.025-1.118-1.355-.222-2.759 1.088-3.233.468-.387 1.102-.585 1.877-.413l24.255 5.366c5.047-7.436 10.154-14.83 14.642-22.625 1.336-2.32 4.772-.824 4.39 1.388 1.995 8.898 3.653 17.845 3.749 26.979 8.642 1.854 17.35 3.403 25.987 5.287 2.624.572 2.084 4.266-.163 4.569Zm-27.947-5.552a2.535 2.535 0 0 1-.542-.185c-1.037-.077-1.976-.763-1.959-2.115.096-7.77-1.02-15.373-2.563-22.935-3.937 6.346-8.188 12.49-12.376 18.678-.013.02-.03.032-.044.051-.379.937-1.288 1.639-2.563 1.357l-20.327-4.498c4.538 6.124 8.699 12.534 14.306 17.773.415.389.636.827.71 1.268.267.711.213 1.547-.407 2.294-4.49 5.42-8.056 11.43-11.296 17.638 6.97-2.824 13.774-6.037 20.664-9.063.196-.085.383-.135.565-.168.706-.291 1.53-.207 2.23.55 4.918 5.317 9.947 10.53 14.87 15.84-.74-6.9-1.354-13.811-1.811-20.736-.073-1.107.514-1.832 1.293-2.162.249-.398.636-.732 1.199-.929 6.55-2.277 12.808-5.169 18.887-8.448-6.945-1.407-13.913-2.7-20.836-4.21Z" fill="#FFF8B8" fill-opacity=".5"/></g><defs><clipPath id="a"><path fill="#fff" transform="scale(-1 1) rotate(-12.476 31.359 444.997)" d="M0 0h80v80H0z"/></clipPath></defs></svg>