<svg width="63" height="62" fill="none" xmlns="http://www.w3.org/2000/svg"><g clip-path="url(#a)"><path d="M49.433 17.45c-1.755 4.737-3.814 9.342-6.398 13.687a300.601 300.601 0 0 0 10.605 10.59c.663.631.416 1.43-.144 1.867-.214.35-.599.575-1.152.494-5.032-.74-10.09-1.285-15.133-1.945-2.346 4.7-4.55 9.468-7.203 14.007-.587 1.006-1.797.674-2.26-.102a1.333 1.333 0 0 1-.297-.582c-1.132-4.772-2.05-9.574-2.19-14.476-5.373-.509-10.468-2.38-15.756-3.394-.991-.19-1.11-1.14-.704-1.83.065-.343.274-.663.68-.872l12.708-6.52c-.493-5.145-.944-10.292-1.816-15.39-.26-1.518 1.811-2.116 2.453-.996 4.148 3.208 8.164 6.562 11.556 10.57 4.508-2.348 8.931-4.856 13.447-7.19 1.372-.71 2.488 1.124 1.604 2.082Zm-14.411 7.794c-.105.054-.208.09-.308.116-.488.347-1.155.387-1.644-.218-2.808-3.475-6.09-6.433-9.548-9.215.585 4.255.956 8.534 1.372 12.81v.04c.175.553.03 1.197-.638 1.54l-10.65 5.465c4.255 1.047 8.45 2.36 12.854 2.622.326.02.585.133.78.3.378.218.661.608.66 1.166 0 4.047.626 8.016 1.469 11.954 2.05-3.808 3.884-7.726 5.825-11.593.056-.11.12-.2.189-.282.205-.388.601-.653 1.188-.575 4.129.55 8.268 1.014 12.396 1.559a291.59 291.59 0 0 1-8.409-8.517c-.438-.463-.444-1-.22-1.431a1.287 1.287 0 0 1 .19-.851c2.065-3.412 3.775-6.988 5.264-10.67-3.591 1.925-7.151 3.909-10.77 5.78Z" fill="#FFF8B8" fill-opacity=".5"/></g><defs><clipPath id="a"><path fill="#fff" transform="scale(-1 1) rotate(27.164 -20.697 -85.668)" d="M0 0h46v46H0z"/></clipPath></defs></svg>