<svg width="80" height="80" fill="none" xmlns="http://www.w3.org/2000/svg"><path d="M73.767 19.373a2.209 2.209 0 0 0-.236-.566 2.3 2.3 0 0 0-.06-.326C69.254 2.401 53.36 0 44.26 0c-7.217 0-13.537 1.382-17.57 2.541-9.816 2.825-16.84 7.273-20.878 13.222-3.917 5.773-3.074 13.142 2.31 20.234.22 9.026 2.658 16.94 7.245 23.53 4.288 6.159 10.392 10.815 17.361 13.404.44 1.758.55 3.514.368 5.38-.22 2.263 3.307 2.241 3.525 0a18.32 18.32 0 0 0-.07-4.188c1.266.32 2.552.574 3.854.758a33.8 33.8 0 0 0 4.691.33c4.27 0 8.384-.82 12.154-2.365.246 1.838.876 3.609 1.937 5.18 1.266 1.872 4.321.11 3.044-1.779-1.061-1.571-1.524-3.248-1.565-5.052a29.86 29.86 0 0 0 5.973-4.434c10.213-9.788 10.474-25.161 9.721-33.453-.381-4.19-1.23-8.75-2.594-13.935Zm-63.515 2.444c-.557.264-.93.773-1.056 1.446a63.673 63.673 0 0 0-.67 4.415c-1.292-3.928-.628-7.57 1.984-10.847 4.641-5.824 12.622-8.64 18.223-10.25 5.035-1.45 10.57-2.246 15.586-2.246 7.786 0 21.37 1.99 24.864 15.317.052.196.13.382.238.566.012.106.031.215.06.326.427 1.627.82 3.295 1.17 4.965-2.48-.495-4.56-1.752-6.34-3.83-.525-.614-1.106-.742-1.502-.742-.446 0-.892.16-1.276.458a2.365 2.365 0 0 0-.839-.028c-9.121 1.347-18.054 2.557-27.064 2.557-7.807 0-14.705-.93-21.087-2.84-.891-.267-1.763.02-2.29.733Zm57.054 37.049c-4.526 7.46-12.91 11.915-22.431 11.915l-.489-.006c-8.986-.146-17.72-4.485-23.96-11.905-4.977-5.914-7.704-13.902-7.89-23.104.07-.339.066-.67-.01-.982a55.593 55.593 0 0 1 .72-8.902c6.196 1.651 12.84 2.455 20.293 2.455 9.426 0 18.732-1.26 28.229-2.662a2.14 2.14 0 0 0 .184-.034c2.555 2.57 5.84 4.107 9.53 4.46 1.788 11.78.421 21.191-4.176 28.765Z" fill="#B3D0FD"/><path d="M29.9 40.306c0-1.42-1.119-2.164-2.222-2.164-.572 0-1.11.191-1.513.537-.463.4-.709.962-.709 1.627 0 1.06.042 2.454.373 3.84.226.953 1.137 1.644 2.166 1.644.195 0 .386-.026.57-.076 1.159-.319 1.843-1.513 1.557-2.718-.206-.867-.222-1.627-.222-2.69ZM56.254 38.558c-.191-.944-1.127-1.657-2.178-1.657a2.17 2.17 0 0 0-.562.074c-1.157.319-1.814 1.456-1.56 2.704.323 1.597.719 2.98 1.209 4.231.386.981 1.198 1.592 2.12 1.592.197 0 .399-.028.6-.084.59-.162 1.139-.626 1.432-1.212.26-.518.297-1.074.104-1.564-.474-1.215-.845-2.514-1.165-4.084ZM50.499 56.134c-4.182 1.669-8.132 1.761-12.404.291-1.28-.439-2.5.362-2.724 1.708-.163.965.237 2.13 1.488 2.56 2.354.81 4.745 1.221 7.108 1.221 2.642 0 5.268-.513 7.804-1.523 1.245-.497 1.611-1.71 1.423-2.691-.253-1.33-1.45-2.057-2.695-1.566ZM40.257 51.02c2.27.624 4.588.87 6.829 0 2.013-.783 1.138-4.06-.901-3.267-1.717.667-3.288.477-5.028 0-2.11-.58-3.005 2.69-.9 3.267Z" fill="#B3D0FD"/></svg>