<svg width="80" height="80" fill="none" xmlns="http://www.w3.org/2000/svg"><g clip-path="url(#a)" fill="#B3D0FD"><path d="M79.904 38.795c.01-.21 0-.424-.046-.637-.293-1.325-.964-2.604-2.013-3.485-.984-.827-2.081-1.244-3.294-1.47a2.067 2.067 0 0 0-1.127-.328c-2.389.03-4.382.826-5.781 2.811-.323.457-.373 1.018-.243 1.542a7.15 7.15 0 0 0-.813 2.673c-.15 1.477.607 2.892 1.577 4.01-3.238 4.344-8.293 8.159-13.975 6.742-3.458-.862-5.4-4.663-6.573-7.693-2.704-6.991-3.05-14.718-3.748-22.132a6.859 6.859 0 0 0 2.398-1.054c.227-.158.422-.348.583-.556.149-.132.288-.276.413-.44 1.076-1.422 1.385-3.262 1.164-5.002-.007-.054-.021-.104-.03-.157.008-.21 0-.424-.047-.637-.292-1.325-.964-2.604-2.013-3.485-.984-.827-2.081-1.245-3.293-1.47a2.07 2.07 0 0 0-1.128-.328c-2.388.03-4.382.826-5.78 2.81-.323.458-.373 1.019-.244 1.543a7.139 7.139 0 0 0-.812 2.673c-.196 1.916 1.135 3.734 2.48 4.926.34.3.706.46 1.072.527.224.105.452.189.68.275-1.085 8.525-2.31 17.892-7 25.258-4.98 7.825-13.488 4.705-20.029.726 1.005-1.406 1.298-3.189 1.084-4.88-.007-.054-.021-.105-.03-.158.008-.21 0-.424-.047-.637-.293-1.325-.964-2.604-2.013-3.485-.984-.827-2.082-1.245-3.294-1.47a2.065 2.065 0 0 0-1.127-.328c-2.388.03-4.382.826-5.781 2.811-.322.457-.372 1.018-.243 1.542a7.154 7.154 0 0 0-.813 2.673c-.195 1.917 1.136 3.735 2.48 4.926.341.302.707.46 1.073.528 1.208.561 2.489.859 3.754.838 2.27 5.603 4.51 11.216 7.183 16.642.097.197.213.355.337.496.082.543.412 1.049 1.093 1.368 15.19 7.122 32.217 5.845 47.9 1.087.676-.205 1.105-.626 1.33-1.127.46-.235.849-.639 1.054-1.257 2.192-6.616 4.25-13.273 6.373-19.91 1.778.272 3.582-.036 5.177-1.147.227-.157.422-.347.583-.555a3.14 3.14 0 0 0 .413-.44c1.076-1.423 1.385-3.263 1.164-5.003-.003-.053-.018-.103-.028-.156Zm-71.112 4.06c-.273 1.116-1.365 1.958-2.813 1.386-3.437-1.356-.32-6.08 2.166-3.616.653.648.825 1.498.647 2.23Zm34.412-30.01c.654.648.827 1.497.648 2.23-.273 1.116-1.365 1.958-2.813 1.386-3.438-1.357-.321-6.08 2.165-3.616Zm19 51.5c-14.25 4.25-29.92 5.715-43.783-.664a2.39 2.39 0 0 0-.163-.43c-1.824-3.703-3.432-7.496-4.994-11.31 7.015 3.512 14.944 4.866 20.996-1.679 3.56-3.85 5.614-8.984 6.934-14.388.812 4.548 2.102 8.957 4.439 12.91 2.22 3.758 5.716 6.06 10.04 6.485 3.897.385 7.46-1.03 10.5-3.276a1043.807 1043.807 0 0 1-3.969 12.352ZM75.36 40.25c-.273 1.117-1.365 1.958-2.813 1.386-3.437-1.355-.32-6.08 2.166-3.615.653.647.826 1.497.647 2.23Z"/><path d="M48.823 57.163c.01-.252 0-.507-.057-.762-.35-1.584-1.151-3.112-2.405-4.166-1.178-.988-2.489-1.489-3.937-1.757a2.478 2.478 0 0 0-1.347-.392c-2.856.035-5.238.987-6.91 3.36-.385.547-.446 1.217-.292 1.845a8.549 8.549 0 0 0-.971 3.195c-.234 2.292 1.357 4.465 2.965 5.889.407.359.845.55 1.282.63 2.983 1.383 6.327 1.465 9.128-.484a3.19 3.19 0 0 0 .697-.664c.177-.159.345-.33.493-.526 1.285-1.7 1.656-3.9 1.392-5.98-.01-.065-.027-.126-.038-.188ZM43.389 58.9c-.327 1.336-1.632 2.341-3.364 1.658-4.109-1.622-.382-7.267 2.589-4.323.782.774.99 1.791.775 2.665ZM21.594 57.834c-2.8 0-2.8 4.34 0 4.34 2.799 0 2.799-4.34 0-4.34ZM57.621 62.826c2.8 0 2.8-4.341 0-4.341-2.798 0-2.798 4.34 0 4.34Z"/></g><defs><clipPath id="a"><path fill="#fff" d="M0 0h80v80H0z"/></clipPath></defs></svg>