<svg width="80" height="80" fill="none" xmlns="http://www.w3.org/2000/svg"><g clip-path="url(#a)"><path d="M43.885 4.538a2.615 2.615 0 0 0-.62-.058 2.5 2.5 0 0 0-1.361-.18C27.122 6.387 13.41 12.17 1.078 20.5c-1.776 1.199-1.13 3.584.295 4.307.177.375.46.724.896.997 4.273 2.693 8.788 4.716 13.456 6.266a4.83 4.83 0 0 0-.105.968c0 .033.01.063.01.096a2.535 2.535 0 0 0-.248.856c-.457 4.52-.68 9.035-.476 13.577.066 1.49 1.233 2.253 2.395 2.293a49.565 49.565 0 0 0 8.488 3.273c.254 3.422.498 6.845.729 10.27-3.407 1.804-5.143 4.936-4.453 8.708.013.808.44 1.584 1.166 2.048 1.76 1.124 3.872 1.76 5.966 1.516.02-.003.039-.01.059-.012.268.023.543.007.812-.074 2.219-.665 4.253-2.028 5.235-4.19.178-.392.267-.803.276-1.203.183-.328.297-.72.288-1.19-.039-1.841-.616-3.637-2.008-4.901-.763-.694-1.666-1.141-2.627-1.415-.192-2.82-.39-5.637-.596-8.455 11.732 2.095 23.998-.048 34.541-6.28.512-.301.83-.7 1-1.135.393-.382.657-.923.657-1.636 0-4.051.018-8.101.239-12.148a2.502 2.502 0 0 0-.057-.692c.036-.163.057-.328.057-.5v-1.19c0-.062-.014-.121-.02-.182a130.79 130.79 0 0 0 11.226-5.147c.684-.351 1.045-.873 1.16-1.434.7-.845.863-2.071-.202-3.021-9.956-8.881-22.492-13.482-35.352-16.332ZM19.627 45.711c-.077-3.894.122-7.773.512-11.655a2.31 2.31 0 0 0 .202-.617c1.35.357 2.713.667 4.081.96.317 4.559.651 9.115.992 13.673a43.739 43.739 0 0 1-5.787-2.361Zm11.135 22.034c.051.078.1.158.144.24-.017.006.132.367.146.419l.032.166c.01.145.02.29.02.437 0 .041.01.076.013.117a6.684 6.684 0 0 1-.419.746 3.63 3.63 0 0 0-.07.081c-.122.137-.261.256-.398.376l-.072.05c-.171.119-.355.217-.539.317-.031.016-.22.098-.322.141-.087.032-.177.06-.266.088-.881.078-1.64-.038-2.394-.353-.068-1.47.893-2.326 2.332-3.078.187-.098.34-.213.48-.333.13.025.353.06.367.063.03.008.3.106.397.133.14.087.339.212.383.227.063.062.13.132.166.163Zm31.546-34.708c-.203 3.73-.233 7.46-.236 11.194-9.737 5.53-21.062 7.365-31.797 5.15-.35-4.69-.695-9.38-1.025-14.072 4.39.72 8.84 1.19 13.296 1.522.215.036.445.052.706.02 6.595-.853 12.937-2.446 19.097-4.601.015.081.038.16.06.24-.051.169-.09.349-.101.547Zm-19.056-.951c-.073.01-.136.033-.205.047-.09-.016-.176-.04-.272-.047-4.105-.302-8.201-.722-12.242-1.363a336.146 336.146 0 0 1 10.83-9.578c2.35-1.985-1.038-5.337-3.37-3.368a330.476 330.476 0 0 0-12.788 11.366c-.211.117-.394.274-.55.46-6.36-1.423-12.514-3.557-18.26-6.883 11.001-6.937 22.979-11.73 35.911-13.69.102.036.198.077.313.103 11.073 2.454 22.036 6.153 30.988 13.225-9.607 4.74-19.67 8.346-30.355 9.728Z" fill="#B3D0FD"/></g><defs><clipPath id="a"><path fill="#fff" d="M0 0h80v80H0z"/></clipPath></defs></svg>