<svg width="80" height="80" fill="none" xmlns="http://www.w3.org/2000/svg"><path d="M76.86 11.655a2.479 2.479 0 0 0-.11-.656c-.123-1.065-.864-2.078-2.232-2.153-3.9-.212-7.8-.233-11.703-.233-.619 0-1.103.202-1.469.515-.753.314-1.34.995-1.34 2.06-.007 21.3-.227 42.598-.234 63.897 0 .268.046.504.114.724.147 1.04.889 2.01 2.226 2.085 4.212.235 8.42.452 12.64.469.08 0 .146-.02.222-.026.081.009.162.026.245.026 3.561 0 2.172-5.35 2.263-7.482.123-2.9.205-5.801.257-8.702.1-5.616.078-11.235-.01-16.85-.173-11.229-.614-22.449-.87-33.674ZM72.665 73.65a241.731 241.731 0 0 1-8.208-.311c.017-20.011.206-40.022.225-60.035 2.515.01 5.029.033 7.542.126.5 20.073 1.47 40.148.44 60.22ZM55.09 26.87a2.33 2.33 0 0 0-.399-1.24 2.39 2.39 0 0 0-1.94-1.336c-3.843-.406-7.641-.226-11.469.234-.439.053-.806.21-1.117.422-.893.224-1.591.934-1.458 2.153 1.773 16.177 1.026 32.49 2.574 48.683.014.147.046.281.08.414-.023 1.187.727 2.395 2.261 2.395 2.537 0 13.6 1.761 13.108-2.803-1.78-16.259-.99-32.614-1.64-48.922Zm-9.277 47.045c-1.273-14.955-.774-30.003-2.238-44.944 2.3-.2 4.598-.275 6.903-.164.498 15.04-.081 30.115 1.383 45.108h-6.048ZM34.555 39.854c-.193-.937-.907-1.678-2.167-1.515-3.344.432-6.702.696-10.064.936a2.615 2.615 0 0 0-.499.086c-1.192-.03-2.373.717-2.31 2.254.468 11.467.924 22.933 1.17 34.406.012.488.15.887.364 1.22.186.977.92 1.83 2.211 1.824 2.889-.016 5.772-.218 8.66-.235.366-.001.684-.074.962-.197 1.374.407 3.089-.3 3.018-2.143-.45-11.777-.7-23.56-.936-35.342a2.283 2.283 0 0 0-.409-1.294Zm-9.23 34.49c-.237-10.184-.628-20.361-1.04-30.54 2.015-.153 4.03-.321 6.04-.543.208 10.302.44 20.605.813 30.902-1.94.032-3.876.125-5.814.18ZM12.14 59.144c-2.296-.194-4.598-.209-6.902-.21-.258 0-.485.045-.698.107-1.06.126-2.056.867-2.111 2.233-.213 5.304-.234 10.61-.234 15.917 0 .238.037.451.092.651C2.36 78.948 3.105 80 4.535 80h7.959c1.221 0 1.94-.768 2.172-1.68.382-.375.637-.902.637-1.596V61.276c-.001-1.87-1.796-2.579-3.163-2.133ZM10.621 75.32H6.884c.007-3.9.034-7.797.15-11.693 1.197.009 2.393.028 3.587.09V75.32ZM7.051 38.896c.617 0 1.215-.213 1.774-.635C16.25 32.676 32.96 18.346 40.7 11.293c-.043 1.299-.068 2.5-.072 3.636-.003.88.296 1.648.869 2.222.59.593 1.447.934 2.35.934 1.604 0 3.231-1.082 3.24-3.148.017-3.795.245-7.658.467-11.42.052-.887-.211-1.663-.761-2.246-.56-.593-1.394-.939-2.294-.946a3.577 3.577 0 0 0-.59-.089C40.156.02 36.427 0 32.622 0c-2.07 0-3.152 1.624-3.153 3.228 0 1.605 1.082 3.23 3.153 3.23 1.263 0 2.525.004 3.788.016-7.64 6.982-23.88 20.953-31.016 26.323-1.205.907-1.649 2.381-1.16 3.847.45 1.347 1.581 2.252 2.816 2.252Z" fill="#B3D0FD"/></svg>