<svg width="68" height="30" viewBox="0 0 68 30" fill="none" xmlns="http://www.w3.org/2000/svg">
<path d="M30.0206 2.34665C30.0163 1.13994 29.7248 0 28.3145 0C28.2739 0 28.2355 0.00787661 28.1961 0.0104781C28.0363 0.00180656 27.8695 0.00715399 27.6883 0.0469706C17.7181 2.23913 8.66655 6.88944 0.638621 12.3153C0.187396 12.6204 0.0586792 12.9923 0.131414 13.3422C0.100182 13.5283 0.0809879 13.7143 0.0805669 13.9029C0.080146 14.3263 0.327057 14.705 0.698728 14.9466C0.747302 15.0034 0.79495 15.0602 0.857582 15.1145C8.06068 21.3505 16.4498 26.9215 26.1563 29.9194C26.4717 30.0166 26.7531 30.0192 26.9997 29.9627C27.5781 29.9551 28.1497 29.9172 28.7229 29.8255C29.4449 29.7102 29.8835 29.0461 29.8378 28.4483C29.8387 28.4211 29.8467 28.3973 29.8467 28.3694C29.8467 20.4793 30.3359 12.5943 29.8993 4.7066C29.8701 4.1775 30.024 3.24379 30.0206 2.34665ZM26.7888 27.3233C17.8985 24.5396 10.1911 19.3778 3.53656 13.6897C10.479 9.0834 18.2743 5.13953 26.7221 3.0046C27.3403 11.1039 26.8461 19.2153 26.7888 27.3233Z" fill="#B3D0FD"/>
<path d="M38.06 2.34665C38.0643 1.13994 38.3558 0 39.766 0C39.8066 0 39.8451 0.00787661 39.8845 0.0104781C40.0443 0.00180656 40.211 0.00715399 40.3923 0.0469706C50.3625 2.23913 59.414 6.88944 67.4419 12.3153C67.8932 12.6204 68.0219 12.9923 67.9492 13.3422C67.9804 13.5283 67.9996 13.7143 68 13.9029C68.0004 14.3263 67.7535 14.705 67.3818 14.9466C67.3333 15.0034 67.2856 15.0602 67.223 15.1145C60.0199 21.3505 51.6307 26.9215 41.9243 29.9194C41.6088 30.0166 41.3275 30.0192 41.0808 29.9627C40.5025 29.9551 39.9309 29.9172 39.3577 29.8255C38.6356 29.7102 38.197 29.0461 38.2427 28.4483C38.2419 28.4211 38.2338 28.3973 38.2338 28.3694C38.2338 20.4793 37.7447 12.5943 38.1813 4.7066C38.2104 4.1775 38.0565 3.24379 38.06 2.34665ZM41.2918 27.3233C50.1821 24.5396 57.8895 19.3778 64.544 13.6897C57.6015 9.0834 49.8063 5.13953 41.3585 3.0046C40.7403 11.1039 41.2345 19.2153 41.2918 27.3233Z" fill="#B3D0FD"/>
</svg>
