<svg width="207" height="207" viewBox="0 0 207 207" fill="none" xmlns="http://www.w3.org/2000/svg">
<g clip-path="url(#clip0_75_573)">
<path d="M11.5128 205.71C12.4875 206.82 13.9942 207.387 15.8715 206.706C41.8089 197.296 70.1274 198.144 95.7817 187.734C97.4702 187.048 98.4002 185.714 98.7191 184.27C98.9305 183.803 99.0968 183.3 99.1596 182.723C100.257 172.453 100.695 162.238 99.7968 151.943C103.187 160.06 103.926 168.651 103.182 177.549C102.865 181.355 106.555 182.676 109.364 181.584C109.973 181.522 110.61 181.32 111.251 180.945C123.978 173.544 135.669 164.683 146.677 154.93C148.753 153.09 148.424 150.705 147.048 149.075C144.315 139.403 141.298 129.818 138.008 120.321C143.046 125.401 146.282 131.598 146.875 139.03C147.289 144.216 154.504 144.849 155.862 140.851C156.103 140.504 156.321 140.127 156.485 139.679C165.517 114.549 166.167 87.8016 157.455 62.5377C172.014 45.1042 185.353 26.5526 197.413 6.82648C200.515 1.75087 192.559 -2.86612 189.47 2.18471C176.779 22.9417 162.623 42.3782 147.105 60.579C146.684 60.4265 146.236 60.3053 145.725 60.2695C106.57 57.5722 75.0093 76.4878 44.5216 98.8413C40.1249 102.064 43.772 109.177 48.1577 107.347C48.4969 107.349 48.8516 107.319 49.2156 107.245C56.5369 105.794 63.9338 105.845 71.1737 107.613C71.2949 107.718 71.4116 107.832 71.5421 107.931C72.5168 108.667 73.0311 109.355 73.0063 110.117C62.079 109.202 51.2547 109.49 40.4486 111.598C39.676 111.748 39.0604 112.043 38.5664 112.425C38.122 112.647 37.6819 112.934 37.2684 113.355C13.8912 137.229 8.5144 169.447 8.90048 201.694C8.92569 203.753 10.0552 205.08 11.5128 205.71ZM43.2732 120.404C53.7919 118.404 64.3827 118.449 75.0137 119.484C75.4449 119.526 75.8376 119.502 76.2082 119.445C77.2236 119.355 78.1845 118.956 78.8404 118.137C81.1958 115.193 82.5813 112.164 82.0449 108.333C81.5845 105.07 79.4737 102.641 77.0215 100.651C76.4939 99.8836 75.6784 99.2592 74.5153 98.9514C70.6209 97.9232 66.7 97.3571 62.7614 97.1594C86.0896 81.3135 110.511 69.0183 139.526 69.25C118.44 92.7653 94.9804 114.115 69.2473 133.332C68.7237 133.721 68.3354 134.172 68.0298 134.647C67.7384 134.798 67.4465 134.979 67.1679 135.202C54.5627 145.116 43.9388 156.883 34.8277 170.053C31.4437 174.944 39.42 179.536 42.7708 174.694C51.4392 162.167 61.6929 151.128 73.6715 141.708C74.0527 141.409 74.3313 141.085 74.5719 140.753C102.486 119.838 127.827 96.5761 150.403 70.7798C155.333 88.193 155.615 105.944 151.654 123.396C149.216 118.741 145.826 114.586 141.508 111.056C141.448 111.006 141.381 110.977 141.319 110.933C140.209 109.513 138.309 108.873 136.459 109.299C132.279 110.255 129.683 113.701 128.647 117.685C128.553 118.044 128.518 118.406 128.509 118.762C128.313 119.5 128.318 120.339 128.647 121.281C132.011 130.894 135.059 140.608 137.847 150.404C129.863 157.308 121.49 163.648 112.6 169.3C112.333 160.361 110.316 151.724 106.007 143.61C105.155 142.009 103.822 141.337 102.461 141.319C101.107 140.622 99.4382 140.631 97.9872 141.386C95.2431 142.814 93.0827 144.953 91.7759 147.705C90.918 148.436 90.3877 149.563 90.5359 151.106C91.4478 160.787 91.1471 170.393 90.2263 180.039C66.9432 188.626 41.6745 188.819 18.0902 196.258C18.3374 168.544 23.3542 141.128 43.2732 120.404Z" fill="#94EDCA" fill-opacity="0.6"/>
</g>
<defs>
<clipPath id="clip0_75_573">
<rect width="207" height="207" fill="white" transform="matrix(-1 0 0 -1 207 207)"/>
</clipPath>
</defs>
</svg>
