<svg width="59" height="59" fill="none" xmlns="http://www.w3.org/2000/svg"><g clip-path="url(#a)" fill="#283D5C"><path d="M38.1 6.681a1.317 1.317 0 0 0-.52-.123c-3.71-1.605-7.674-2.088-11.501-.464-3.774 1.6-6.596 5.201-7.75 9.065-2.395 8.028 4.514 15.993 9.017 21.804.032.042.07.075.105.111.047.14.128.269.23.383a18.442 18.442 0 0 1-1.247 1.96c-.258.352-.387.767-.304 1.155.058.45.334.872.887 1.037.759.227 1.512.463 2.268.702-.025 2.228 1.192 3.982 2.71 5.573 1.932 2.02 3.28 3.203.938 5.617-1.12 1.155.683 2.87 1.8 1.72 1.919-1.978 2.878-4.327 1.16-6.758-1.316-1.864-3.482-3.145-3.997-5.323.674.212 1.35.422 2.027.625.06.018.115.024.171.033.025.007.046.018.072.025.611.145 1.406-.25 1.499-.923.186-1.35.25-2.662.065-3.99.028-.02.057-.04.084-.062C44.846 31.244 52.246 13.155 38.1 6.68Zm-8.86 33.013c.291-.445.566-.899.816-1.37.012-.025.018-.048.029-.072 1.06.26 2.115.54 3.165.838.113.627.14 1.264.111 1.9-1.375-.425-2.746-.866-4.12-1.297Zm5.125-2.875c-1.657-.488-3.333-.904-5.013-1.306-3.864-4.972-8.697-10.505-8.94-17.098-.142-3.872 2.394-7.414 5.52-9.452 3.385-2.206 7.601-1.572 11.06.05.148.069.292.102.432.116 11.65 5.879 4.456 21.086-3.059 27.69Z"/><path d="M33.64 9.402c-1.568-.534-2.148 1.969-.595 2.498 4.67 1.59 6.542 6.159 5.229 10.745-.456 1.594 2.043 2.181 2.498.594 1.727-6.032-1.18-11.81-7.132-13.837Z"/></g><defs><clipPath id="a"><path fill="#fff" transform="rotate(13.385 5.66 48.235)" d="M0 0h48.899v48.899H0z"/></clipPath></defs></svg>