<svg width="116" height="116" fill="none" xmlns="http://www.w3.org/2000/svg"><g clip-path="url(#a)" fill="#283D5C"><path d="M55.964 7.775a2.703 2.703 0 0 0-1.079.18c-8.293-.082-16.176 2.16-22.122 8.277-5.862 6.03-8.333 15.087-7.44 23.312 1.858 17.089 21.266 26.654 34.406 34.06.095.055.192.085.286.127.203.228.457.406.742.541a37.827 37.827 0 0 1-.799 4.7c-.209.87-.122 1.758.343 2.425.468.805 1.326 1.384 2.504 1.256 1.615-.176 3.229-.33 4.847-.478 1.728 4.234 5.424 6.583 9.563 8.382 5.261 2.284 8.75 3.447 6.243 9.878-1.2 3.075 3.577 4.885 4.773 1.82 2.055-5.27 2-10.474-3.184-13.706-3.974-2.477-9.088-3.174-11.797-6.885 1.445-.134 2.888-.274 4.332-.43.126-.015.235-.047.35-.075.052-.005.1 0 .155-.01 1.272-.211 2.46-1.59 2.1-2.938-.722-2.7-1.644-5.233-3.053-7.6.037-.06.077-.117.111-.183C88.273 48.86 87.871 8.76 55.964 7.775Zm9.522 69.485c.195-1.072.354-2.15.451-3.24.004-.057-.004-.103-.002-.157 2.212-.35 4.43-.663 6.653-.935.713 1.096 1.27 2.279 1.723 3.505-2.94.29-5.883.546-8.825.827Zm7.404-9.515c-3.523.397-7.023.944-10.52 1.52-11.265-6.328-24.81-12.946-30.517-25.221-3.35-7.21-1.373-15.926 2.917-22.268 4.645-6.868 13.124-9.024 20.954-8.71.336.014.636-.04.911-.124 26.712 1.845 25.21 36.333 16.255 54.803Z"/><path d="M49.696 16.47c-3.39.238-2.495 5.433.864 5.197 10.095-.708 17.274 6.441 18.44 16.16.406 3.378 5.6 2.499 5.197-.863-1.534-12.784-11.63-21.396-24.501-20.494Z"/></g><defs><clipPath id="a"><path fill="#fff" transform="rotate(-9.439 99.654 8.227)" d="M0 0h100.335v100.335H0z"/></clipPath></defs></svg>