<svg width="81" height="81" fill="none" xmlns="http://www.w3.org/2000/svg"><g clip-path="url(#a)" fill="#283D5C"><path d="M21.36 17.276c.168-.158.348-.264.53-.328 3.504-3.178 7.737-5.15 12.651-4.64 4.846.502 9.422 3.655 12.242 7.707 5.856 8.42 1.304 20.088-1.416 28.409-.02.06-.049.11-.073.165a1.34 1.34 0 0 1-.105.525c.689.649 1.41 1.263 2.169 1.82.427.314.735.747.797 1.225.113.54-.027 1.127-.58 1.515-.756.532-1.504 1.074-2.251 1.62.91 2.566.249 5.026-.816 7.406-1.354 3.024-2.389 4.87 1.182 6.825 1.708.934.376 3.56-1.327 2.629-2.926-1.601-4.927-3.972-3.975-7.394.73-2.624 2.64-4.875 2.35-7.577-.668.487-1.337.97-2.014 1.446-.059.042-.118.069-.177.1-.025.017-.044.037-.07.053-.625.387-1.668.215-2.039-.53-.743-1.493-1.335-2.986-1.655-4.588-.04-.013-.079-.024-.119-.04-13.093-5.563-28.522-23.82-15.303-36.348Zm22.975 34.978c-.5-.41-.987-.836-1.453-1.292-.024-.024-.039-.048-.06-.071-1.08.679-2.146 1.378-3.2 2.097.122.765.345 1.51.63 2.235 1.365-.982 2.72-1.981 4.083-2.969Zm-6.858-1.492c1.656-1.155 3.361-2.233 5.076-3.298 2.34-7.123 5.54-15.24 3.197-22.944-1.377-4.524-5.611-7.71-9.907-8.95-4.653-1.341-9.106.896-12.321 4.003a1.47 1.47 0 0 1-.437.29c-10.67 10.95 3.389 25.952 14.392 30.9Z"/><path d="M27.416 18.828c1.537-1.177 3.177 1.508 1.654 2.673-4.58 3.504-4.859 9.45-1.574 14.28 1.14 1.679-1.416 3.25-2.552 1.578-4.32-6.352-3.366-14.065 2.472-18.531Z"/></g><defs><clipPath id="a"><path fill="#fff" transform="matrix(-.85049 .526 .526 .85049 48.595 0)" d="M0 0h57.138v59.872H0z"/></clipPath></defs></svg>