<svg width="38" height="38" fill="none" xmlns="http://www.w3.org/2000/svg"><g clip-path="url(#a)" fill="#FFD3BD"><path d="M29.222 19.595a.744.744 0 1 0 0-1.487.744.744 0 0 0 0 1.487ZM19 35.472a.744.744 0 1 0 0-1.487.744.744 0 0 0 0 1.487Z"/><path d="M27.734 0H10.266c-1.23 0-2.231 1.001-2.231 2.231V35.77c0 1.23 1 2.23 2.23 2.23h17.47c1.23 0 2.23-1 2.23-2.23V22.198a.744.744 0 1 0-1.487 0v9.258H9.522V7.436h18.956v8.032a.744.744 0 1 0 1.487 0V2.231c0-1.23-1-2.23-2.23-2.23Zm.744 32.944v2.825c0 .41-.334.744-.744.744H10.266a.745.745 0 0 1-.744-.743v-2.826h18.956Zm0-26.994H9.522V2.23c0-.41.334-.743.744-.743h17.468c.41 0 .744.333.744.743V5.95Z"/><path d="M21.404 2.975h-4.808a.744.744 0 1 0 0 1.487h4.808a.744.744 0 1 0 0-1.487Z"/></g><defs><clipPath id="a"><path fill="#fff" d="M0 0h38v38H0z"/></clipPath></defs></svg>