<svg width="38" height="38" fill="none" xmlns="http://www.w3.org/2000/svg"><g clip-path="url(#a)" fill="#94EDCA"><path d="M23.453 19.297a.743.743 0 1 0 0 1.485.743.743 0 0 0 0-1.485Z"/><path d="M7.583 27.445.161 36.797a.742.742 0 0 0 .582 1.204h36.515a.742.742 0 0 0 .582-1.204l-7.422-9.351a.742.742 0 0 0-.581-.281h-6.502l5.55-8.706a11.824 11.824 0 0 0 1.99-6.583C30.876 5.328 25.55 0 19.002 0 12.452 0 7.126 5.328 7.126 11.876c0 2.354.688 4.63 1.99 6.583l5.55 8.706H8.165a.742.742 0 0 0-.582.28Zm-2.77 5.88H9.3l-2.533 3.191H2.28l2.533-3.191Zm10.8-4.676 2.034 3.191h-5.274l2.533-3.191h.707Zm6.776 0h.706l2.533 3.191h-5.274l2.035-3.191Zm4.417 4.676 2.533 3.191H8.662l2.533-3.191h15.611Zm4.428 3.191-2.533-3.191h4.488l2.533 3.191h-4.488Zm.777-4.676h-4.488L24.99 28.65h4.488l2.533 3.191ZM10.355 17.641a10.345 10.345 0 0 1-1.745-5.765C8.61 6.146 13.27 1.485 19 1.485c5.73 0 10.391 4.661 10.391 10.39 0 2.064-.603 4.058-1.744 5.766l-.009.013-8.637 13.548a1192577.359 1192577.359 0 0 0-8.646-13.56ZM13.01 28.65l-2.533 3.191H5.99l2.533-3.191h4.488Z"/><path d="M19 19.297c4.075 0 7.422-3.3 7.422-7.421 0-4.093-3.33-7.422-7.422-7.422s-7.422 3.329-7.422 7.422c0 4.123 3.349 7.421 7.422 7.421Zm0-13.359a5.944 5.944 0 0 1 5.938 5.938 5.938 5.938 0 0 1-11.875 0A5.944 5.944 0 0 1 19 5.938ZM22.126 21.83a.742.742 0 0 0-1.019.252l-2.743 4.551a.742.742 0 0 0 1.271.767l2.744-4.551a.742.742 0 0 0-.253-1.02Z"/></g><defs><clipPath id="a"><path fill="#fff" d="M0 0h38v38H0z"/></clipPath></defs></svg>