<svg width="38" height="38" fill="none" xmlns="http://www.w3.org/2000/svg"><g clip-path="url(#a)" fill="#FFF8B8"><path d="M19 5.39a.742.742 0 1 0 0-1.485.742.742 0 0 0 0 1.485Z"/><path d="M36.082 3.904H22.333a.744.744 0 0 0 0 1.487h13.42L19 16.096 2.248 5.391h13.419a.744.744 0 1 0 0-1.487H1.917A1.92 1.92 0 0 0 0 5.822v19.192c0 1.188.967 2.155 2.155 2.155H18.84l1.604 4.87a.744.744 0 0 0 1.231.293l.883-.88 2.423 2.426c.14.14.328.218.525.219h.001a.743.743 0 0 0 .526-.218l2.601-2.596a.744.744 0 0 0 .001-1.052l-2.422-2.427.636-.635h8.997A2.158 2.158 0 0 0 38 25.013V5.822a1.92 1.92 0 0 0-1.918-1.918Zm.43 20.651-11.8-10.344 11.8-7.54v17.884Zm-35.025 0V6.67l11.802 7.541L1.487 24.555Zm.972 1.126 12.135-10.636 4.006 2.56a.743.743 0 0 0 .8 0l4.006-2.56 12.135 10.636h-8.765l-8.056-2.669a.744.744 0 0 0-.94.939l.57 1.73H2.459Zm24.597 5.075L25.507 32.3l-2.422-2.427a.744.744 0 0 0-1.052-.001l-.555.554-1.823-5.538 5.535 1.834-.555.554a.744.744 0 0 0-.001 1.051l2.422 2.428Z"/></g><defs><clipPath id="a"><path fill="#fff" d="M0 0h38v38H0z"/></clipPath></defs></svg>