<svg width="207" height="207" fill="none" xmlns="http://www.w3.org/2000/svg"><g clip-path="url(#a)" fill="#B3D0FD"><path d="M202.249 45.091c-.382-3.704-3.113-5.82-6.024-6.348a7.14 7.14 0 0 0-2.113-.433c-61.461-2.689-122.988-3.97-184.477-1.355-4.112.174-6.264 3.287-6.5 6.487a7.517 7.517 0 0 0-.283 1.651C.85 82.373-.439 119.664.14 157.001a7.2 7.2 0 0 0 .33 1.991c-.418 3.636 1.73 7.824 6.452 8.182 64.931 4.92 130.467 7.309 195.097-2.28 3.8-.562 5.209-3.413 4.867-6.318a7.538 7.538 0 0 0 .111-1.577c-1.264-37.331-.909-74.712-4.747-111.908ZM13.675 154.105c-.446-34.635.68-69.232 2.473-103.814 57.707-2.198 115.445-1.065 173.126 1.385 3.031 33.532 2.989 67.201 4.024 100.836-59.441 8.2-119.924 5.964-179.623 1.593Z"/><path d="M184.367 135.264c-7.849-13.927-17.986-26.347-30.224-36.641-2.911-2.449-6.395-1.995-8.831-.237a10.19 10.19 0 0 0-1.439.917c-6.471 5.001-12.789 10.192-19.067 15.43-5.491-10.104-11.597-19.84-18.815-28.996-2.234-2.836-7.292-2.479-9.59 0-14.657 15.787-26.597 33.58-38.363 51.56-1.32 2.017-1.364 3.98-.674 5.633-.062 3.437 2.113 7.048 6.528 7.286 22.61 1.211 45.206.681 67.821 0 .02 0 .037-.004.058-.007 15.584-.013 31.166-.095 46.741-.67 5.094-.189 7.198-4.887 6.344-8.705.649-1.644.633-3.575-.489-5.57Zm-109.971 1.82c8.219-12.416 16.673-24.609 26.377-35.907 7.947 11.185 14.333 23.356 20.168 35.778-15.521.407-31.03.615-46.545.129Zm61.241-.445a449.532 449.532 0 0 0-4.504-9.593 784.794 784.794 0 0 1 18.035-14.733c7.671 7.12 14.258 15.122 19.882 23.937-11.133.28-22.273.369-33.413.389ZM69.507 84.467c1.343-6.262-.729-12.272-4.61-16.636-4.335-4.873-10.93-7.696-17.552-6.534-12.444 2.185-19.814 15.774-14.217 27.632 3.917 8.292 18.796 11.773 26.538 8.349 5.041-2.228 8.702-7.5 9.841-12.811ZM55.95 82.252c-2.258 3.752-6.686 3.09-8.798.226a6.065 6.065 0 0 1-1.172-3.722c.134-9.141 13.806-2.883 9.97 3.496Z"/></g><defs><clipPath id="a"><path fill="#fff" d="M0 0h207v207H0z"/></clipPath></defs></svg>