<svg width="100" height="100" fill="none" xmlns="http://www.w3.org/2000/svg"><g clip-path="url(#a)" fill="#FFD3BD"><path d="M89.597 21.072C81.029 7.018 66.049 2.688 50.505 5.635 33.071-1.532 16.428 3.93 7.113 20.411 2.793 28.055.821 36.92.26 45.61c-.914 14.138.784 29.084 1.982 43.176.04.47.204.858.436 1.173.055.821.533 1.6 1.561 1.889 12.338 3.467 24.746 4.46 37.256 1.327.29-.035.581-.12.856-.257.27-.133.546-.256.819-.382-.037.71-.096 1.42-.195 2.127-.397 2.797 3.876 4.002 4.276 1.18.48-3.376.435-6.648-.068-9.97 4.201.61 8.494.749 12.53.694.525-.007.95-.164 1.282-.413.57-.026 1.121-.082 1.665-.15.483 3.172 1.982 5.967 4.17 8.415 1.911 2.135 5.037-1.012 3.138-3.138-1.636-1.827-2.743-3.934-2.988-6.35 3.746-1.442 6.688-4.052 8.945-7.387 8.692 1.36 17.122-1.016 23.425-7.334.671-.672.767-1.463.531-2.15.07-.215.118-.446.119-.71.021-15.768-2.047-32.573-10.403-46.28Zm-29.33 60.693c-.495.006-.896.15-1.22.374-10.605.097-22.817-.989-29.367-10.44-5.61-8.095-6.087-11-6.6-19.362 18.27-.548 37.603-4.954 53.1-14.512.014.118.026.238.06.363 3.445 12.932 2.846 43.335-15.972 43.577Zm17.972-8.352c4.709-10.285 4.834-24.574 2.784-34.243a37.631 37.631 0 0 0 3.627 2.006c2.567 1.223 4.819-2.6 2.238-3.83a40.875 40.875 0 0 1-7.498-4.643 3.254 3.254 0 0 0-.733-.43c-.589-.38-1.353-.445-2.138.083C60.755 42.98 40.336 47.614 21.282 47.944c-.482-.134-1-.13-1.458.02-1.122.007-2.24.005-3.352-.017-2.862-.058-2.856 4.377 0 4.435.723.015 1.453.009 2.18.012.624 9.651 1.377 13.142 7.716 22.29 3.937 5.68 9.797 8.713 16.206 10.296.008.108.01.216.032.33.166.836.295 1.677.395 2.52-.782.32-1.564.644-2.33 1.003-.07.012-.138.014-.211.031-11.415 2.887-22.608 2.036-33.848-.973C5.652 76.281 5.226 64.64 4.736 53 4.373 44.388 5.43 36.104 8.45 28c2.833-7.607 7.91-14.484 15.02-18.526 8.168-4.644 17.815-2.915 26.045.51.582.24 1.084.211 1.496.023.08-.009.156-.008.238-.023C66.32 6.997 79.207 11.84 86.956 25.32c7.148 12.433 8.628 27.974 8.608 42.03 0 .11.019.208.031.31-4.777 4.45-10.932 6.413-17.356 5.753Z"/><path d="M39.2 57.187c-.144-1.2-.9-2.218-2.217-2.218-1.1 0-2.362 1.014-2.218 2.218.211 1.769.572 3.485 1.004 5.21.692 2.773 4.969 1.595 4.276-1.18-.332-1.328-.682-2.668-.844-4.03ZM66.287 57.706c-.322-1.33-.508-2.673-.66-4.03-.134-1.201-.907-2.217-2.218-2.217-1.107 0-2.352 1.014-2.218 2.216.196 1.748.405 3.499.817 5.21.673 2.78 4.95 1.6 4.28-1.179ZM48.06 65.754c2.445 1.591 5.47 1.817 8.177.778 1.127-.432 1.892-1.476 1.549-2.728-.296-1.08-1.598-1.982-2.728-1.549-1.688.647-3.215.675-4.76-.331-2.404-1.565-4.624 2.277-2.238 3.83ZM63.69 69.109c-4.909 4.21-11.545 3.877-17.087 1.13-2.553-1.264-4.802 2.56-2.238 3.831 7.45 3.691 15.951 3.759 22.46-1.825 2.175-1.865-.977-4.987-3.135-3.136Z"/></g><defs><clipPath id="a"><path fill="#fff" d="M0 0h100v100H0z"/></clipPath></defs></svg>