<svg width="124" height="124" fill="none" xmlns="http://www.w3.org/2000/svg"><path d="M55.309 25.419a1.817 1.817 0 0 0-2.569 2.569l2.055 2.055a1.817 1.817 0 0 0 2.569-2.57l-2.055-2.054ZM33.92 46.807a1.817 1.817 0 0 0-2.568 2.57l2.055 2.054a1.817 1.817 0 0 0 2.568-2.569l-2.055-2.055Zm83.979 66.84c-.194-.968-.719-2.753-1.464-5.057-3.067-9.472-9.886-27.742-12.951-34.351.501-4.925-.787-9.4-3.648-12.718a6.757 6.757 0 0 0-2.389-3.958c-3.733-3.05-8.52-5.933-13.523-8.25 6.328-7.996 15.631-21.456 18.514-26.311 3.127-5.267-.021-12.059-6.052-13.082a1.815 1.815 0 1 0-.608 3.581c3.521.599 5.365 4.567 3.536 7.646-2.929 4.934-12.617 18.926-18.843 26.67-2.559-1.032-5.123-1.893-7.588-2.535.564-1.9.934-3.824 1.105-5.74 4.905-6.343 12.4-16.84 16.05-22.797a1.816 1.816 0 1 0-3.099-1.898c-2.954 4.824-8.49 12.694-13.057 18.821a24.766 24.766 0 0 0-1.434-5.717c4.076-4.119 4.064-10.785-.038-14.887-3.398-3.398-8.486-3.964-12.43-1.856C56.025 6.816 51.302 3.001 46.83.618c-3.19-1.7-7.127.278-7.683 3.869-.024.154-.046.3-.065.438-7.196-.929-13.905 2.984-20.413 5.285a4.128 4.128 0 0 0-2.528 2.528C13.84 19.252 9.93 25.956 10.858 33.15c-.139.019-.285.04-.439.064-3.578.555-5.574 4.483-3.869 7.684 2.384 4.473 6.2 9.197 10.595 13.151-2.123 3.991-1.507 9.068 1.852 12.427 4.094 4.094 10.748 4.12 14.873.052 3.673 1.42 7.796 1.963 12.167 1.486-2.652 8.156-9.326 24.639-11.06 27.407-3.47 5.54.18 12.773 6.624 13.349a1.816 1.816 0 1 0 .323-3.618c-3.737-.336-5.908-4.547-3.868-7.803 2.181-3.482 9.852-22.782 12.009-30.064.386-.098.77-.204 1.154-.318 1.13 4.332 2.94 8.974 5.149 13.342-3.11 8.36-7.066 17.703-9.132 21.552-.654 1.218.244 2.675 1.6 2.675.647 0 1.274-.347 1.601-.957 1.89-3.519 5.28-11.412 8.226-19.073 1.516 2.563 3.148 4.947 4.832 7.009a6.8 6.8 0 0 0 2.115 1.735c-3.105 5.796-.24 14.917-2.673 19.885-2.103 4.294 3.04 5.025 7.335 7.129 4.305 2.11-.56 3.171 1.54-1.114 3.023-6.172 8.04-16.047 11.468-22.147 3.183-.79 6.275-2.267 9.086-4.333 3.934 10.289 8.152 22.391 8.565 24.37.942 4.709 5.514 7.721 10.181 6.787a8.648 8.648 0 0 0 6.787-10.181ZM69.84 15.633c2.37 2.37 2.659 6.046.866 8.733a22.712 22.712 0 0 0-3.445-4.424 22.945 22.945 0 0 0-6.79-4.696 6.915 6.915 0 0 1 9.369.387ZM9.756 39.19c-.527-.99.098-2.212 1.22-2.386 1.174-.181 1.596-.169 1.681-.164 1.326.29 2.496-.931 2.141-2.247-1.797-6.664 2.247-13.31 4.769-20.445a.511.511 0 0 1 .313-.314c7.115-2.514 13.778-6.567 20.445-4.768 1.314.354 2.538-.813 2.248-2.142-.006-.086-.018-.507.164-1.681.173-1.12 1.394-1.748 2.385-1.22 4.052 2.16 8.35 5.623 11.99 9.632-.135.15-.266.305-.393.463-17.27-4.54-36.34 9.72-37.632 28.371-.205 2.96.06 5.819.764 8.497-.158.127-.313.258-.463.394-4.01-3.64-7.473-7.938-9.632-11.99Zm11.809 24.718c-2.563-2.563-2.69-6.652-.386-9.368a22.995 22.995 0 0 0 9.112 10.24c-2.688 1.786-6.358 1.496-8.726-.872Zm6.878-5.148c-8.606-8.606-7.477-23.739 2.517-33.732 9.702-9.703 24.89-11.36 33.733-2.517 8.606 8.606 7.477 23.74-2.517 33.733-9.78 9.78-24.936 11.313-33.733 2.516Zm26.205 6.96c7.318-3.168 13.663-9.298 16.99-17.008 7.962 2.023 17.42 6.69 23.512 11.664 4.576 3.738-4.988 15.432-9.199 19.642-4.197 4.198-15.904 13.776-19.642 9.2-4.971-6.088-9.636-15.539-11.661-23.498Zm13.901 51.832c-1.219 2.488 4.65 1.222 2.157 0-2.49-1.22-.288-1.924.932-4.416.182-.37-6.264-1.362-5.33-3.238 2.534.823 1.426 2.133 3.964 4.172a558.879 558.879 0 0 0-1.723 3.482Zm33.934-7.654c-2.032-5.955-5.18-14.578-7.624-20.861a1.817 1.817 0 0 0-2.893-.704c-3.07 2.704-6.612 4.537-10.247 5.301-.51.108-.948.428-1.206.88-2.565 4.511-5.906 10.96-8.58 16.252-2.825-2.08-6.475-3.603-8.996-4.461 1.826-3.618 4.143-8.133 6.366-12.252 7.754-.227 18.038-10.287 19.217-11.465.982-.983 8.129-8.286 10.618-15.18.756 2.055 1 4.403.68 6.908-.043.346.014.697.164 1.012 2.395 5.013 8.736 21.681 12.164 31.812-3.356.11-7.094 1.264-9.663 2.758Zm7.916 10.367a5.015 5.015 0 0 1-5.908-3.952c-.114-.542-.406-1.542-.83-2.869 2.054-1.421 6.438-2.866 9.678-2.659.495 1.578.845 2.817.997 3.575a5.014 5.014 0 0 1-3.937 5.905ZM48.019 34.76c-1 .069-1.756.936-1.688 1.937a3.47 3.47 0 0 1-3.702 3.702 1.816 1.816 0 0 0-.25 3.624 7.105 7.105 0 0 0 5.514-2.063 7.105 7.105 0 0 0 2.063-5.513c-.07-1-.936-1.756-1.937-1.687Z" fill="#F5F1E9"/></svg>