<svg width="185" height="180" fill="none" xmlns="http://www.w3.org/2000/svg"><g clip-path="url(#a)"><path d="M126.492 32.204a4.157 4.157 0 0 0-1.446-.608c-10.058-6.31-21.305-9.7-33.007-7.279C80.5 26.703 70.9 35.035 66.009 44.956c-10.161 20.611 6.558 45.92 17.201 64.104.077.132.172.239.257.357.081.408.263.799.511 1.164-1.362 1.648-2.815 3.227-4.392 4.688-.887.82-1.427 1.884-1.345 2.983-.015 1.256.61 2.551 2.141 3.29a447.763 447.763 0 0 1 6.26 3.097c-.97 6.058 1.83 11.471 5.57 16.597 4.757 6.515 8.167 10.439.433 15.791-3.7 2.559.81 8.176 4.499 5.626 6.339-4.385 10.056-10.281 6.084-17.801-3.047-5.766-8.778-10.385-9.385-16.589 1.861.932 3.723 1.857 5.598 2.763.164.079.321.124.48.179.068.033.124.075.197.105 1.706.716 4.159.057 4.699-1.729 1.083-3.579 1.8-7.119 1.802-10.836.09-.04.18-.075.269-.123 29.14-15.988 57.813-61.386 19.604-86.418Zm-38.917 85.283a45.205 45.205 0 0 0 2.907-3.306c.046-.06.07-.118.111-.177a286.931 286.931 0 0 1 8.796 3.937c.073 1.767-.107 3.515-.448 5.234-3.796-1.879-7.573-3.797-11.366-5.688Zm15.952-5.149c-4.587-2.195-9.255-4.204-13.94-6.179-9.14-15.563-20.851-33.163-18.885-51.247 1.156-10.62 9.908-18.94 19.753-22.855 10.662-4.241 22.574-.308 31.896 5.917.4.267.805.432 1.203.544 31.244 22.105 4.33 59.764-20.027 73.82Z" fill="#FEFBF4"/></g><defs><clipPath id="a"><path fill="#fff" transform="rotate(22.773 25.954 128.877)" d="M0 0h143.93v134.103H0z"/></clipPath></defs></svg>