<svg width="34" height="61" fill="none" xmlns="http://www.w3.org/2000/svg"><path d="M12.892.982a1.47 1.47 0 0 1 .623-.01c4.637-.934 9.283-.46 13.242 2.497 3.903 2.914 6.218 7.966 6.563 12.89.715 10.232-9.172 17.92-15.771 23.672-.048.042-.099.07-.148.105-.09.155-.214.287-.36.397.26.91.564 1.806.931 2.674.207.488.25 1.018.057 1.46-.179.522-.6.954-1.273 1.004-.923.07-1.842.152-2.764.237-.533 2.67-2.362 4.445-4.495 5.943-2.712 1.903-4.547 2.958-2.482 6.466.988 1.677-1.501 3.25-2.486 1.578-1.693-2.874-2.197-5.936.374-8.386 1.972-1.879 4.765-2.835 5.9-5.302-.823.075-1.645.147-2.47.21-.072.005-.137-.003-.203-.007-.03.003-.057.01-.088.01-.735.013-1.542-.67-1.479-1.5.127-1.662.383-3.248.93-4.787-.028-.032-.056-.061-.082-.096C-.983 28.552-4.879 4.967 12.892.982Zm1.808 41.81c-.22-.609-.42-1.224-.586-1.855-.008-.032-.008-.06-.015-.091-1.274.03-2.549.083-3.822.161a10.8 10.8 0 0 0-.605 2.242c1.676-.144 3.351-.308 5.028-.457Zm-5.125-4.796c2.014-.143 4.03-.195 6.05-.23 5.658-4.919 12.565-10.25 14.5-18.067 1.136-4.59-.868-9.496-3.923-12.761-3.307-3.536-8.278-3.897-12.632-2.876a1.47 1.47 0 0 1-.523.025C-1.725 8.024 2.661 28.11 9.575 37.997Z" fill="#B3D0FD"/></svg>