<svg width="334" height="334" fill="none" xmlns="http://www.w3.org/2000/svg"><g clip-path="url(#a)" fill="#FEFBF4"><path d="M90.275 74.773a6.509 6.509 0 0 1 2.227-1.405c14.784-13.425 32.55-22.014 53.036-20.534 20.199 1.46 39.141 13.79 50.705 30.012 24.018 33.707 4.432 81.981-7.341 116.34-.084.248-.209.459-.312.685.001.734-.172 1.462-.467 2.16 2.844 2.566 5.819 4.989 8.962 7.175 1.767 1.228 3.032 2.964 3.265 4.909.447 2.196-.168 4.611-2.493 6.267a715.844 715.844 0 0 0-9.482 6.9c3.672 10.382.786 20.524-3.777 30.385-5.804 12.533-10.215 20.21 4.589 27.761 7.081 3.61 1.388 14.512-5.67 10.915-12.133-6.186-20.366-15.636-16.218-29.745 3.181-10.817 11.261-20.26 10.192-31.27a704.614 704.614 0 0 1-8.481 6.16c-.248.177-.497.293-.747.427-.103.074-.183.16-.295.23-2.627 1.657-6.971 1.081-8.481-1.921-3.025-6.012-5.422-12.043-6.676-18.554-.165-.049-.329-.089-.494-.152-54.367-21.132-117.848-93.89-62.042-146.745Zm94.127 140.203c-2.068-1.616-4.078-3.298-6-5.106-.098-.094-.158-.19-.247-.284a452.472 452.472 0 0 0-13.46 8.97c.471 3.112 1.363 6.133 2.513 9.062 5.749-4.185 11.454-8.437 17.194-12.642Zm-28.55-5.257c6.972-4.927 14.143-9.547 21.355-14.11 10.125-29.415 23.889-63.005 14.498-94.217-5.52-18.33-23.031-30.838-40.899-35.374-19.35-4.914-38.051 4.783-51.628 17.885a6.509 6.509 0 0 1-1.838 1.237c-45.083 46.086 12.836 105.702 58.512 124.579Z"/><path d="M115.469 80.373c6.475-4.999 13.185 5.776 6.767 10.73-19.289 14.89-20.753 39.24-7.289 58.586 4.678 6.724-6.071 13.46-10.729 6.767-17.71-25.445-13.34-57.098 11.251-76.083Z"/></g><defs><clipPath id="a"><path fill="#fff" transform="scale(-1 1) rotate(32.24 -103.753 -353.947)" d="M0 0h241.587v241.587H0z"/></clipPath></defs></svg>