<svg width="207" height="207" fill="none" xmlns="http://www.w3.org/2000/svg"><g clip-path="url(#a)" fill="#FFF8B8"><path d="M205.31 152.913a8.472 8.472 0 0 1-.25 1.856c.175 2.336-.547 4.712-1.977 6.449-1.461 1.774-3.593 2.827-6.005 2.966-28.421 1.647-56.337 9.167-83.335 16.44-30.819 8.299-62.689 16.884-95.669 16.886h-.012c-2.563 0-5.123-.053-7.703-.157-2.495-.102-4.654-1.173-6.14-3.031-2.3-1.469-3.607-3.921-3.611-6.816-.02-12.963-.165-26.148-.303-38.9-.3-27.613-.613-56.166.305-84.271.097-2.994 1.58-5.5 4.082-6.922 1.946-1.65 4.32-2.344 7.028-1.865a111.614 111.614 0 0 0 19.372 1.684c1.851 0 3.695-.055 5.537-.14a4.34 4.34 0 0 0-.255 1.926c.02.19.053.368.073.554.091.838.215 1.66.336 2.481.34 2.294.78 4.54 1.33 6.745.206.826.42 1.65.652 2.468.232.826.49 1.652.748 2.474-7.55.382-14.97.186-22.37-.606-.611 25.3-.343 50.991-.08 75.865.11 10.58.22 21.157.268 31.737h.7c32.25 0 63.813-8.489 94.336-16.697 24.714-6.649 50.244-13.514 76.297-15.98.172-7.474.386-14.948.598-22.424.846-29.66 1.723-60.308-.218-90.423-19.749.287-38.067 5.26-56.441 11.838.039-.885.095-1.768.085-2.649-.012-.864-.068-1.721-.123-2.582a61.57 61.57 0 0 0-.768-6.574 73.261 73.261 0 0 0-.466-2.474c-.06-.3-.106-.606-.169-.905a5.987 5.987 0 0 0-.511-1.474c20.286-6.974 41.259-12.502 63.393-11.946 1.483.04 2.844.417 4.048 1.13 3.414.604 6.83 3.167 7.203 7.783 2.631 32.598 1.667 65.692.734 97.7-.262 9.286-.533 18.57-.719 27.854Z"/><path d="M78.546 66.898c-.053.016-.105.028-.158.043.01-.17.012-.342.022-.514.034.156.097.316.136.471ZM108.829 55.85c.133.064.269.096.407.146-.133.05-.261.105-.392.153l-.015-.3Z"/><path d="M124.601 50.007c-.395 3.412-1.051 6.617-1.739 9.446a96.852 96.852 0 0 1-.38 1.527c-5.391 20.973-18.253 43.642-35.289 62.197-.979 1.066-2.262 1.652-3.617 1.652-1.332 0-2.634-.562-3.63-1.555-.069-.049-.14-.097-.21-.148a5.157 5.157 0 0 1-1.964-1.2c-10.611-10.272-19.44-23.83-25.431-38.433a121.082 121.082 0 0 1-3.765-10.486c-.25-.81-.47-1.621-.698-2.432-.228-.811-.467-1.62-.68-2.435a109.401 109.401 0 0 1-1.515-6.814c-.157-.816-.322-1.632-.46-2.447-.138-.82-.245-1.638-.361-2.46-.124-.87-.267-1.742-.368-2.61-.1-.846-.131-1.665-.194-2.496-.88-11.702 1.727-21.88 7.695-29.529C58.358 13.625 69.072 9.49 83.83 9.49c1.764 0 3.504.06 5.044.16h2.033c.635 0 1.26.12 1.86.359 11.411.298 21.366 5.795 27.052 14.696a30.846 30.846 0 0 1 2.256 4.2 32.197 32.197 0 0 1 1.441 4.004c.232.801.438 1.605.611 2.415.174.826.312 1.654.431 2.486.322 2.274.436 4.547.402 6.777a53.953 53.953 0 0 1-.111 2.687c-.066.92-.144 1.836-.248 2.734Zm-10.127-8.49a34.203 34.203 0 0 0-.281-2.542c-.027-.18-.034-.372-.063-.55a21.478 21.478 0 0 0-.395-1.926 20.715 20.715 0 0 0-1.754-4.538c-3.697-7.052-11.292-11.597-20.319-11.597l-.83.01a5.058 5.058 0 0 1-1.844-.34h-1.129c-.308 0-.618-.03-.938-.091a72.11 72.11 0 0 0-3.12-.067c-11.178 0-19.07 2.902-24.123 8.873-4.453 5.262-6.034 13.537-4.787 24.558.058.526.116 1.05.191 1.584.05.386.078.744.136 1.134.068.442.155.886.228 1.328.135.814.264 1.627.42 2.443a98.589 98.589 0 0 0 2.305 9.303c.238.8.47 1.602.73 2.402 2.487 7.687 5.909 15.243 10.048 22.262 4.037 6.84 8.751 13.167 13.96 18.587 11.207-13.105 20.425-28.724 26.737-45.332 1.565-4.121 2.742-7.98 3.561-11.616.082-.36.143-.71.218-1.063.201-.97.395-1.938.54-2.879.15-.953.252-1.879.346-2.798.253-2.49.319-4.874.163-7.145Z"/><path d="M103.701 55.512c-1.046 1.491-2.277 2.843-3.629 4.074-4.417 4.019-10.221 6.566-15.992 6.992-.54.04-1.083.06-1.623.06-.85 0-1.694-.06-2.535-.149a24.952 24.952 0 0 1-5.109-1.123 27.07 27.07 0 0 1-11.253-7.167 26.033 26.033 0 0 1-1.805-2.126 23.12 23.12 0 0 1-1.473-2.226 20.716 20.716 0 0 1-2.396-6.08c-.104-.477-.213-.955-.281-1.44-.768-5.593.748-10.756 4.392-14.932 4.957-5.684 13.56-9.213 22.458-9.213l.616.01c10.747-.441 19.01 5.408 21.675 14.68.189.666.351 1.351.485 2.053.155.819.276 1.655.346 2.519.01.109.03.21.037.32.051.78.051 1.547.022 2.307-.114 2.867-.824 5.547-1.965 7.998a22.9 22.9 0 0 1-1.97 3.443Zm-7.89-9.742c.208-.91.324-1.834.336-2.76 0-.068.01-.14.01-.21-.003-.751-.104-1.506-.252-2.25-.783-3.875-3.67-7.38-9.99-7.38l-.35-.003-.167.015-.83-.015c-4.431 0-10.788 1.36-14.132 5.19-1.68 1.926-2.311 4.185-1.936 6.907.226 1.636.906 3.108 1.902 4.398.37.477.787.926 1.236 1.35a14.576 14.576 0 0 0 2.485 1.886 17.993 17.993 0 0 0 3.38 1.584c2.066.725 4.276 1.113 6.383 1.113 5.183-.023 8.943-2.978 10.849-6.813a13.54 13.54 0 0 0 1.075-3.012Z"/></g><defs><clipPath id="a"><path fill="#fff" transform="matrix(-1 0 0 1 207 0)" d="M0 0h207v207H0z"/></clipPath></defs></svg>