<svg width="28" height="32" fill="none" xmlns="http://www.w3.org/2000/svg"><path d="M1.176 3.347C1.179 2.14 1.43 1 2.64 1c.035 0 .068.008.102.01a1.37 1.37 0 0 1 .436.037c8.558 2.192 16.328 6.842 23.219 12.268.387.305.498.677.435 1.027.027.186.044.372.044.56 0 .424-.212.803-.53 1.045-.042.056-.083.113-.137.168-6.183 6.236-13.384 11.807-21.716 14.804-.271.098-.512.1-.724.044a8.767 8.767 0 0 1-1.48-.137c-.62-.116-.996-.78-.956-1.378-.001-.027-.008-.05-.008-.079 0-7.89-.42-15.775-.045-23.662.025-.53-.107-1.463-.104-2.36ZM3.95 28.323c7.631-2.783 14.247-7.945 19.96-13.633-5.96-4.607-12.651-8.55-19.903-10.685-.53 8.099-.106 16.21-.057 24.318Z" fill="#fff" stroke="#fff"/></svg>