<svg width="207" height="207" fill="none" xmlns="http://www.w3.org/2000/svg"><path d="M38.779 152.629a4.725 4.725 0 0 0-.956-.798c-1.309-.818-3.43-1.972-4.06-3.506-.492-1.196 1.227-2.215 2.213-2.875 4.726-3.157.295-10.836-4.472-7.653-3.667 2.45-6.96 5.82-6.714 10.556.251 4.786 4.074 8.202 7.847 10.662a4.67 4.67 0 0 0 1.77 1.283c4.51 1.872 8.785 4.52 12.121 8.101 3.437 3.686.33 4.987-3.629 6.248-5.423 1.724-3.106 10.284 2.355 8.544 7.38-2.347 14.614-7.977 10.654-16.48-3.15-6.778-10.407-11.095-17.13-14.082ZM55.705 127.044c-3.729-3.336-9.028 1.075-7.371 4.788 4.023 12.772 8.128 25.52 12.152 38.296 1.711 5.428 10.267 3.109 8.546-2.357-.55-1.748-1.11-3.491-1.662-5.24 2.12-1.216 4.233-2.441 6.27-3.788a5.06 5.06 0 0 0 1.147-1.056c1.398 1.473 2.832 2.912 4.194 4.424 3.834 4.254 10.081-2.033 6.266-6.266-9.228-10.233-19.28-19.619-29.542-28.801Zm8.917 26.837c-.987-3.109-1.97-6.22-2.96-9.325a399.144 399.144 0 0 1 7.02 6.839 102.387 102.387 0 0 1-4.06 2.486ZM97.072 145.509c-1.021.833-2.357 1.717-3.733 2.481-7.446-9.416-14.033-19.427-20.324-29.648-2.99-4.856-10.657-.408-7.653 4.473 7.123 11.575 14.646 22.827 23.216 33.39.512.631 1.078 1.023 1.662 1.257.937.478 2.01.645 3.017.251 3.727-1.452 6.986-3.412 10.079-5.939 1.872-1.532 1.579-4.689 0-6.265-1.833-1.835-4.395-1.528-6.264 0ZM113.688 129.63c-.595.485-1.56 1.118-2.477 1.668-.374.223-.772.426-1.166.63-1.759-2.118-3.416-4.299-5.026-6.512a42.345 42.345 0 0 0 2.592-1.753c1.939-1.43 2.91-3.81 1.592-6.06-1.123-1.917-4.114-3.027-6.062-1.59-.989.729-2.021 1.393-3.065 2.038-1.634-2.631-3.205-5.307-4.632-8.077a44.104 44.104 0 0 0 4.415-2.555c2.012-1.326 2.86-3.892 1.591-6.061-1.169-2-4.044-2.921-6.06-1.592-2.117 1.396-4.328 2.702-6.696 3.618-1.499.577-2.66 1.696-3.078 3.111-.486 1.102-.565 2.408.06 3.767 5.088 11.036 11.97 20.889 19.892 30.067 1.149 1.33 2.534 1.653 3.791 1.343.3-.027.597-.091.889-.203 3.587-1.383 6.729-3.14 9.71-5.569 1.876-1.53 1.577-4.689 0-6.266-1.841-1.841-4.398-1.529-6.27-.004Z" fill="#FFD3BD"/><path d="M202.691 11.504c-7.62-10.89-21.971-8.592-32.704-4.478-6.184 2.37-12.484 5.286-18.207 8.628-18.368 10.72-53.782 34.661-49.922 59.858-32.526 19.995-69.55 41.595-99.153 58.595a4.342 4.342 0 0 0-1.543 1.456c-1.205 1.237-1.677 3.072-.417 4.976 3.241 4.892 6.264 9.914 9.182 15.004.019.044.029.089.05.135C17.297 170.61 25 185.34 32.87 199.987c.236.443.525.79.828 1.09.812 1.707 2.569 2.856 4.915 2.053 45.207-15.458 96.837-51.936 134.145-80.895 1.272-.986 1.66-2.187 1.495-3.328.152-.865.044-1.811-.433-2.78-2.897-5.898-6.194-11.521-9.699-17.005 3.918-2.9 7.542-6.144 10.686-9.225 10.008-9.81 18.74-21.008 24.662-33.764 4.204-9.061 8.635-22.178 7.283-33.408-.493-4.085-1.75-7.92-4.061-11.221Zm-38.16 105.984c-34.54 26.809-83.618 61.002-125.12 75.945-6.915-12.899-13.682-25.869-20.17-38.987a4.579 4.579 0 0 0-.506-1.396 296.242 296.242 0 0 0-8.035-13.349c36.18-20.863 85.047-49.382 120.206-71.917 7.274 10.02 14.832 19.813 21.742 30.035-2.175 1.142-4.379 2.025-6.571 2.548-.467-2.789-1.564-5.4-3.316-7.385-.24-.274-.494-.532-.754-.781-7.737-7.336-22.765-2.165-26.683 7.16-1.988 4.729.138 13.179 4.427 16.334 5.067 3.725 13.258 4.621 18.924 1.828 3.75-1.848 6.117-5.472 7.119-9.522 3.675-.703 7.328-2.157 10.856-4.076 2.8 4.407 5.454 8.909 7.881 13.563Zm-32.976-20.595c1.461-.144 2.997.266 4.479 1.56a5.749 5.749 0 0 1 1.406 1.812c-2.038-.613-4.011-1.706-5.885-3.372Zm3.984 10.853c-1.859 1.903-4.503 3.117-6.913 2.637-1.504-.299-2.56-.941-3.241-1.789-1.434-1.789-1.203-4.5-.011-6.869.055.058.091.119.152.177 3.199 3.067 6.57 4.917 10.013 5.844Zm63.44-85.019c.283 21.859-9.189 38.133-22.841 54.311-3.747 4.44-9.531 10.86-16.067 15.928-7.622-11.2-16.012-21.895-23.914-32.965a4.76 4.76 0 0 0-.965-.986c-1.207-1.573-3.293-2.37-5.467-.973a1565.017 1565.017 0 0 1-20.401 12.862c.649-18.216 28.012-36.6 40.533-44.91 11.826-7.848 43.808-27.115 49.139-3.46-.003.067-.017.124-.017.193Z" fill="#FFD3BD"/></svg>