<svg width="26" height="30" viewBox="0 0 26 30" fill="none" xmlns="http://www.w3.org/2000/svg">
<path d="M18.4191 17.3581C20.1832 15.4934 21.2682 12.9798 21.2682 10.2163C21.2682 8.49394 20.5511 6.57998 20.2428 5.83702C18.7264 2.18217 15.2556 0 10.9584 0C9.39315 0 7.76482 0.298746 6.24904 0.863947C2.14722 2.39366 0.414206 6.92826 0.516204 10.7438C0.659362 16.0983 5.39777 20.6215 10.8628 20.6215C12.1653 20.6215 13.4116 20.3788 14.5616 19.9399C15.5671 22.077 16.6346 24.1893 17.7371 26.2763C18.2782 27.3008 18.695 28.5286 19.3646 29.4725C20.4535 31.0069 23.9508 28.7858 24.9195 27.9783C24.9246 27.9739 24.9275 27.9691 24.9325 27.9649C25.3658 27.8229 25.6823 27.3642 25.3496 26.8866C23.1049 23.6609 20.5714 20.6465 18.4191 17.3581ZM2.46427 10.6915C2.38089 7.5686 3.72902 3.88339 6.92973 2.6899C8.22977 2.2049 9.62282 1.94863 10.9584 1.94863C14.4928 1.94863 17.2208 3.63817 18.4429 6.5836C18.9919 7.90638 19.3195 9.26401 19.3195 10.216C19.3195 14.8785 15.5262 18.6724 10.8631 18.6724C6.42636 18.6724 2.5802 15.0174 2.46427 10.6915ZM15.9559 19.2843C16.4135 19.0261 16.8494 18.7346 17.2611 18.4123C18.1605 19.7683 19.1197 21.0808 20.0966 22.3811C19.4264 22.7932 18.7835 23.2448 18.1612 23.7253C17.4085 22.254 16.6648 20.7778 15.9559 19.2843ZM20.5288 28.376C19.99 27.2925 19.4388 26.2151 18.8859 25.1383C19.5744 24.5934 20.2903 24.0888 21.0439 23.6362C21.9031 24.7717 22.7617 25.9077 23.5879 27.0676C22.6875 27.7524 21.6418 28.1888 20.5288 28.376Z" fill="#304566"/>
</svg>
