<svg width="20" height="21" viewBox="0 0 20 21" fill="none" xmlns="http://www.w3.org/2000/svg">
<path d="M1.56492 0.959544C0.760449 0.962406 0.000488281 1.15676 0.000488281 2.09692C0.000488281 2.12397 0.00573936 2.14962 0.00747366 2.17589C0.00169266 2.28241 0.00525761 2.39358 0.031802 2.51442C1.49324 9.16122 4.59345 15.1956 8.21067 20.5475C8.41411 20.8483 8.66202 20.9341 8.89528 20.8857C9.01933 20.9065 9.14333 20.9193 9.26907 20.9196C9.55138 20.9198 9.80381 20.7552 9.96491 20.5074C10.0027 20.4751 10.0406 20.4433 10.0768 20.4015C14.2341 15.5995 17.9481 10.0067 19.9467 3.53573C20.0116 3.32544 20.0133 3.13788 19.9756 2.97344C19.9705 2.58788 19.9453 2.20681 19.8841 1.82467C19.8073 1.34331 19.3646 1.05091 18.966 1.08139C18.9479 1.08082 18.932 1.07544 18.9134 1.07544C13.6533 1.07544 8.39672 0.749366 3.13822 1.04042C2.78549 1.05984 2.16302 0.957243 1.56492 0.959544ZM18.216 3.11408C16.3602 9.04095 12.919 14.1792 9.12695 18.6156C6.05609 13.9873 3.42684 8.79042 2.00356 3.15854C7.40306 2.74643 12.8107 3.07587 18.216 3.11408Z" fill="#ffbebe"/>
</svg>
