<svg width="20" height="21" viewBox="0 0 20 21" fill="none" xmlns="http://www.w3.org/2000/svg">
<path d="M18.4361 20.8796C19.2405 20.8767 20.0005 20.6824 20.0005 19.7422C20.0005 19.7151 19.9952 19.6895 19.9935 19.6632C19.9993 19.5567 19.9957 19.4455 19.9692 19.3247C18.5077 12.6779 15.4075 6.64354 11.7903 1.29159C11.5869 0.990776 11.339 0.904964 11.1057 0.953454C10.9816 0.932633 10.8576 0.919837 10.7319 0.919556C10.4496 0.919275 10.1972 1.08388 10.0361 1.33166C9.99825 1.36405 9.96034 1.39581 9.92416 1.43757C5.76685 6.23963 2.05284 11.8324 0.0542535 18.3034C-0.0105901 18.5137 -0.0123247 18.7012 0.0253482 18.8657C0.0304547 19.2512 0.0556978 19.6323 0.116832 20.0144C0.193671 20.4958 0.6364 20.7882 1.03495 20.7577C1.05307 20.7583 1.06896 20.7637 1.08756 20.7637C6.34764 20.7637 11.6043 21.0897 16.8628 20.7987C17.2155 20.7793 17.838 20.8819 18.4361 20.8796ZM1.78494 18.725C3.64074 12.7982 7.08197 7.65992 10.874 3.22355C13.9449 7.85186 16.5741 13.0487 17.9974 18.6806C12.5979 19.0927 7.19032 18.7632 1.78494 18.725Z" fill="#ffbebe"/>
</svg>
