<svg width="200" height="208" fill="none" xmlns="http://www.w3.org/2000/svg"><g clip-path="url(#a)" filter="url(#b)"><path d="M121.38 31.944c4.886-11.789-.709-25.307-12.498-30.193-11.788-4.887-25.306.709-30.193 12.497-4.886 11.789.71 25.307 12.498 30.193 11.789 4.886 25.306-.709 30.193-12.497Z" fill="#7292DE"/><path d="M100 30.342a7.241 7.241 0 1 0 0-14.482 7.241 7.241 0 0 0 0 14.482Z" fill="#4677D4"/><path d="M171.74 69.446c0 37.544 5.259 60.041 11.491 70.114 3.505 5.664 1.073 13.136-5.105 15.625-19.37 7.803-45.619 13.397-78.126 13.397-32.507 0-58.756-5.594-78.126-13.397-6.178-2.489-8.61-9.961-5.105-15.625 6.233-10.073 11.491-32.57 11.491-70.114L100 58.202l71.74 11.244Z" fill="#EEECFF"/><path d="M28.336 157.609c18.604 6.51 42.637 10.973 71.664 10.973 24.241 0 44.999-3.112 62.022-7.929 10.103-22.123 4.53-50.091-14.54-69.161-24.068-24.068-61.98-26.438-84.64-3.78-10.252 10.253-14.864 23.253-13.385 37.259-9.99 8.394-17.987 19.901-21.121 32.638Z" fill="#D3D3FF"/><path d="M171.74 69.446H28.26V43.987c0-7.536 6.11-13.646 13.645-13.646h116.189c7.536 0 13.645 6.11 13.645 13.646v25.46h.001Z" fill="#FF6E80"/><path d="M77.313 161.661c-8.975-8.975-16.05-16.611-24.616-23.183a62.309 62.309 0 0 0-4.725 5.595c-10.997 14.661-12.96 33.97 0 46.929 12.959 12.959 32.268 10.996 46.929 0a62.402 62.402 0 0 0 5.595-4.726c-6.573-8.565-14.209-15.64-23.183-24.615Z" fill="#00D6BC"/><path d="M70.191 172.814c-5.967 0-11.541-.438-15.919-1.248a2.93 2.93 0 0 1 1.066-5.762c11.452 2.12 31.81 1.408 43.865-3.027a2.93 2.93 0 1 1 2.023 5.499c-8.564 3.151-20.42 4.538-31.035 4.538Z" fill="#00C072"/><path d="M52.699 138.476c3.612 9.756 10.017 19.532 19.142 28.656 8.975 8.975 18.765 15.468 28.654 19.144 19.271-18.347 18.612-42.601 6.708-54.506-11.904-11.904-36.158-12.563-54.504 6.706Z" fill="#00C072"/><path d="M142.724 167.594c-17.614 17.615-42.645 10.703-62.347-8.998-19.7-19.701-26.612-44.733-8.998-62.347 17.614-17.614 47.864-15.922 67.566 3.779 19.702 19.702 21.394 49.952 3.779 67.566Z" fill="#FFD3BC"/><path d="M89.122 123.518c3.382-3.382 2.68-9.567-1.566-13.814-4.248-4.247-10.432-4.948-13.815-1.566-3.382 3.382-2.68 9.567 1.567 13.814s10.432 4.949 13.814 1.566ZM130.803 165.205c3.383-3.382 2.682-9.567-1.566-13.814-4.247-4.247-10.432-4.948-13.814-1.566-3.382 3.382-2.681 9.567 1.566 13.814s10.432 4.949 13.814 1.566Z" fill="#FFA1AC"/><path d="M97.388 119.232a10.372 10.372 0 0 1-10.347-11.086 2.93 2.93 0 0 1 5.845.402 4.51 4.51 0 0 0 4.814 4.814 2.929 2.929 0 1 1 .401 5.845c-.238.017-.476.025-.713.025ZM130.113 151.957a10.37 10.37 0 0 1-10.347-11.085 2.93 2.93 0 0 1 5.846.402 4.513 4.513 0 0 0 1.309 3.504 4.518 4.518 0 0 0 3.504 1.309 2.93 2.93 0 1 1 .402 5.846c-.239.016-.477.024-.714.024ZM107.946 137.164c1.808-1.807 1.899-4.646.204-6.341-1.695-1.694-4.534-1.603-6.341.204-1.807 1.808-1.898 4.646-.204 6.341 1.695 1.694 4.534 1.603 6.341-.204Z" fill="#3B4456"/><path d="M120.255 52.824h-40.51a2.93 2.93 0 0 1 0-5.86h40.51a2.93 2.93 0 1 1 0 5.86Z" fill="#EEECFF"/></g><defs><clipPath id="a"><path fill="#fff" d="M0 0h200v200H0z"/></clipPath><filter id="b" x="-4" y="0" width="208" height="208" filterUnits="userSpaceOnUse" color-interpolation-filters="sRGB"><feFlood flood-opacity="0" result="BackgroundImageFix"/><feColorMatrix in="SourceAlpha" values="0 0 0 0 0 0 0 0 0 0 0 0 0 0 0 0 0 0 127 0" result="hardAlpha"/><feOffset dy="4"/><feGaussianBlur stdDeviation="2"/><feComposite in2="hardAlpha" operator="out"/><feColorMatrix values="0 0 0 0 0 0 0 0 0 0 0 0 0 0 0 0 0 0 0.25 0"/><feBlend in2="BackgroundImageFix" result="effect1_dropShadow_11_244"/><feBlend in="SourceGraphic" in2="effect1_dropShadow_11_244" result="shape"/></filter></defs></svg>