<svg width="200" height="200" fill="none" xmlns="http://www.w3.org/2000/svg"><path d="m59.188 33.638 28.59-28.59c6.73-6.73 17.643-6.73 24.373 0l42.967 42.967c6.73 6.73 6.73 17.642 0 24.373l-28.59 28.59c-6.73 6.73-17.642 6.73-24.373 0L59.188 58.011c-6.73-6.73-6.73-17.643 0-24.373Z" fill="#EEECFF"/><path d="m110.232 90.074-40.14-40.14a5.812 5.812 0 0 1 0-8.22l25.763-25.762a5.812 5.812 0 0 1 8.22 0l40.14 40.139a5.812 5.812 0 0 1 0 8.22l-25.763 25.763a5.812 5.812 0 0 1-8.22 0Z" fill="#FF6E80"/><path d="M146.977 178.549H29.129V32.565h117.848c8.06 0 14.595 6.534 14.595 14.594v116.795c-.001 8.061-6.535 14.595-14.595 14.595Z" fill="#00D6BC"/><path d="M161.571 163.954V91.136l-.649-.65c-5.536-5.535-12.895-8.584-20.723-8.584-7.828 0-15.187 3.049-20.722 8.584l-42.968 42.967c-5.535 5.535-8.584 12.895-8.584 20.723 0 7.828 3.049 15.187 8.584 20.722l3.65 3.651h66.818c8.061 0 14.594-6.534 14.594-14.595Z" fill="#00C072"/><path d="M108.021 101.941h-29.26c-4.933 0-8.932 4-8.932 8.933v8.346c0 4.933 4 8.932 8.933 8.932h3.048l20.656-10.513 5.555-15.698Z" fill="#F7E969"/><path d="M37.857 181.621H22.5a8.523 8.523 0 0 1-8.522-8.523V38.016a8.523 8.523 0 0 1 8.522-8.523h15.358a8.523 8.523 0 0 1 8.523 8.523v135.082a8.523 8.523 0 0 1-8.523 8.523Z" fill="#7292DE"/><path d="M81.81 128.152h47.566a8.932 8.932 0 0 0 8.932-8.932v-8.346a8.933 8.933 0 0 0-8.932-8.933h-21.355L81.81 128.152Z" fill="#F5C956"/><path d="m113.636 194.952-28.59-28.59c-6.73-6.73-6.73-17.642 0-24.373l42.967-42.967c6.73-6.73 17.642-6.73 24.372 0l28.591 28.59c6.73 6.731 6.73 17.643 0 24.373l-42.967 42.967c-6.731 6.73-17.643 6.73-24.373 0Z" fill="#EEECFF"/><path d="M122.363 184.601c7.671-18.818 23.992-27.863 40.144-33.127l7.565-7.565a5.812 5.812 0 0 0 0-8.22l-25.763-25.763a5.812 5.812 0 0 0-8.22 0l-40.14 40.14a5.812 5.812 0 0 0 0 8.22l25.763 25.762c.205.206.425.386.651.553Z" fill="#7292DE"/><path d="M83.348 69.065c-.016 5.17-5.293 9.345-11.785 9.325-6.492-.02-11.742-4.228-11.726-9.398.016-5.17 5.292-9.345 11.785-9.325 6.492.02 11.742 4.228 11.726 9.398ZM123.555 69.191c-.016 5.17 5.233 9.378 11.726 9.398 6.492.02 11.768-4.154 11.784-9.324.017-5.17-5.233-9.378-11.726-9.398-6.492-.02-11.768 4.154-11.784 9.324Z" fill="#fff"/><path d="M112.951 61.965c.018-5.857-4.223-6.42-9.458-6.437-5.234-.017-9.479.52-9.497 6.378-.019 5.857 4.21 10.619 9.444 10.635 5.235.017 9.493-4.719 9.511-10.576ZM84.07 61.81h-.009a2.93 2.93 0 0 1-2.92-2.938 2.65 2.65 0 0 0-.775-1.888 2.648 2.648 0 0 0-1.882-.787 2.6 2.6 0 0 0-1.888.775 2.649 2.649 0 0 0-.786 1.882 2.93 2.93 0 0 1-2.93 2.921h-.009a2.93 2.93 0 0 1-2.92-2.939 8.469 8.469 0 0 1 2.515-6.02 8.446 8.446 0 0 1 6.036-2.478 8.47 8.47 0 0 1 6.02 2.516A8.47 8.47 0 0 1 87 58.889a2.93 2.93 0 0 1-2.93 2.921ZM134.087 61.967h-.01a2.93 2.93 0 0 1-2.92-2.939 2.649 2.649 0 0 0-.775-1.887 2.648 2.648 0 0 0-1.882-.787h-.009a2.668 2.668 0 0 0-2.665 2.658 2.93 2.93 0 0 1-2.93 2.92h-.009a2.93 2.93 0 0 1-2.921-2.939c.016-4.691 3.837-8.498 8.525-8.498h.027a8.47 8.47 0 0 1 6.02 2.516 8.47 8.47 0 0 1 2.478 6.035 2.93 2.93 0 0 1-2.929 2.92Z" fill="#3B4456"/><path d="M123.555 151.855c-4.672 4.672-2.744 20.991-1.192 32.746a5.808 5.808 0 0 0 7.569-.553l32.575-32.574c-11.192-1.367-33.375-5.196-38.952.381Z" fill="#00D6BC"/><path d="M140.224 136.201a5.228 5.228 0 1 0 0-10.457 5.228 5.228 0 0 0 0 10.457Z" fill="#EEECFF"/></svg>