<svg width="200" height="200" fill="none" xmlns="http://www.w3.org/2000/svg"><g clip-path="url(#a)"><path d="m80.564 86.818-39.97 14.548-19.646-53.977c-2.62-7.2 1.092-15.16 8.291-17.78l13.898-5.059c7.2-2.62 15.16 1.092 17.78 8.292l19.647 53.976ZM106.544 86.818l39.97 14.548L166.16 47.39c2.62-7.2-1.092-15.16-8.292-17.781l-13.897-5.059c-7.2-2.62-15.161 1.092-17.781 8.292l-19.646 53.976Z" fill="#00D6BC"/><path d="M128.38 42.243h-16.901V25.128c0-4.536-3.691-8.226-8.227-8.226H83.855c-4.536 0-8.227 3.69-8.227 8.226v17.115H58.728V25.128C58.727 11.273 70 0 83.856 0h19.396c13.856 0 25.129 11.273 25.129 25.128v17.115h-.001Z" fill="#F5C956"/><path d="M189.843 116.725c-4.079 4.078-10.751 3.873-14.572-.448l-4.649-5.259a9.574 9.574 0 0 1 13.514-13.514l5.259 4.649c4.321 3.821 4.526 10.494.448 14.572Z" fill="#4677D4"/><path d="m179.714 153.714-5.526-55.45a73.441 73.441 0 0 0-41.859-59.193 91.213 91.213 0 0 0-77.55 0c-.324.152-.641.315-.962.471-25.912 35.2-30.1 132.008 36.805 150.727h55.999c19.671 0 35.044-16.981 33.093-36.555Z" fill="#F7E969"/><path d="M53.817 39.542A73.434 73.434 0 0 0 12.92 98.264l-5.526 55.451c-1.951 19.574 13.422 36.555 33.093 36.555h50.135C46.952 166.566 44.216 75.057 53.817 39.542Z" fill="#F5C956"/><path d="M61.504 107.622c6.53 0 11.825-4.217 11.825-9.418s-5.294-9.417-11.825-9.417c-6.532 0-11.826 4.216-11.826 9.417s5.294 9.418 11.826 9.418ZM125.604 107.622c6.531 0 11.826-4.217 11.826-9.418s-5.295-9.417-11.826-9.417c-6.531 0-11.826 4.216-11.826 9.417s5.295 9.418 11.826 9.418Z" fill="#FFA1AC"/><path d="M103.088 90.968c0-5.892-4.268-6.446-9.534-6.446-5.266 0-9.535.554-9.535 6.446 0 5.893 4.269 10.669 9.535 10.669s9.534-4.776 9.534-10.669ZM63.48 89.89a2.93 2.93 0 0 1-2.93-2.929v-4.829a2.93 2.93 0 0 1 5.86 0v4.829a2.93 2.93 0 0 1-2.93 2.93ZM123.627 89.89a2.93 2.93 0 0 1-2.93-2.929v-4.829a2.93 2.93 0 0 1 5.86 0v4.829a2.93 2.93 0 0 1-2.93 2.93Z" fill="#3B4456"/><path d="M109.528 49.307H77.58a6.716 6.716 0 0 0-6.715 6.715v3.43a6.716 6.716 0 0 0 6.716 6.716h31.947a6.716 6.716 0 0 0 6.715-6.716v-3.43a6.716 6.716 0 0 0-6.715-6.715Z" fill="#fff"/><path d="M126.246 122.855h-57.2C48.925 151.811 58.92 189.223 86.21 200h40.036c14.695 0 26.608-11.912 26.608-26.608v-23.93c0-14.695-11.912-26.607-26.608-26.607Z" fill="#00D6BC"/><path d="M69.046 122.855h-8.185c-14.695 0-26.607 11.912-26.607 26.608v23.93C34.254 188.088 46.166 200 60.86 200h25.35c-15.626-18.066-24.143-49.293-17.165-77.145Z" fill="#00C072"/><path d="M93.554 162.908c-13.375 0-33.803-2.076-43.484-5.428a2.93 2.93 0 1 1 1.917-5.537c9.106 3.154 28.666 5.105 41.567 5.105 12.9 0 32.46-1.951 41.566-5.105a2.93 2.93 0 0 1 1.917 5.537c-9.681 3.352-30.108 5.428-43.483 5.428Z" fill="#fff"/><path d="M117.589 181.325c-5.768 0-10.341-4.863-9.987-10.62l.43-7.006a9.575 9.575 0 0 1 19.113 0l.431 7.006c.354 5.757-4.22 10.62-9.987 10.62Z" fill="#4677D4"/></g><defs><clipPath id="a"><path fill="#fff" d="M0 0h200v200H0z"/></clipPath></defs></svg>