<svg width="207" height="207" fill="none" xmlns="http://www.w3.org/2000/svg"><g clip-path="url(#a)" fill="#FFF8B8"><path d="M165.756 98.272c-6.912-39.632-46.839-58.359-83.517-48.346-2.952.805-4.321 3.032-4.463 5.38-22.592 12.39-35.434 38.21-31.058 64.727 5.51 33.383 41.629 49.71 71.987 42.382 27.811-6.717 52.219-34.494 47.051-64.143Zm-47.894 51.238c-24.55 8.199-51.048-5.042-58.326-30.04-7.595-26.071 12.612-52.338 37.431-57.992 1.25-.284 2.19-.847 2.907-1.55 24.581-1.024 47.004 12.71 53.23 39.027 5.544 23.43-14.844 43.742-35.242 50.555ZM109.818 25.064V6.11c0-8.148-12.634-8.148-12.634 0v18.953c0 8.148 12.634 8.148 12.634 0ZM165.454 47.219c4.053-4.732 8.073-9.49 11.728-14.545 2.02-2.797.487-7.03-2.268-8.643-3.189-1.867-6.63-.519-8.641 2.268-3.02 4.178-6.401 8.076-9.752 11.987-2.238 2.611-2.575 6.358 0 8.932 2.293 2.295 6.691 2.62 8.933 0ZM198.258 101.502h-15.163c-8.147 0-8.147 12.634 0 12.634h15.163c8.147.002 8.147-12.634 0-12.634ZM171.771 162.736c-5.729-5.807-14.66 3.131-8.932 8.933 5.048 5.118 9.485 10.756 13.896 16.425 2.118 2.723 6.726 2.207 8.933 0 2.657-2.658 2.111-6.219 0-8.933-4.409-5.671-8.846-11.307-13.897-16.425ZM97.815 182.364c-.003 6.115-.011 12.229-.631 18.319-.352 3.433 3.14 6.317 6.317 6.317 3.707 0 5.967-2.894 6.317-6.317.62-6.09.629-12.204.631-18.319 0-8.149-12.632-8.149-12.634 0ZM49.76 166.527c-3.69 4.301-7.378 8.605-11.37 12.632-5.738 5.791 3.193 14.726 8.933 8.933 3.992-4.026 7.682-8.33 11.37-12.632 2.239-2.612 2.573-6.363 0-8.933-2.295-2.295-6.69-2.616-8.933 0ZM28.957 102.765H8.743c-8.15 0-8.15 12.634 0 12.634h20.216c8.145.003 8.145-12.634-.002-12.634ZM42.194 60.842c7.243 3.687 13.639-7.213 6.376-10.909-5.646-2.876-10.97-6.243-15.776-10.384-6.14-5.288-15.117 3.61-8.933 8.933 5.624 4.848 11.714 8.99 18.333 12.36Z"/></g><defs><clipPath id="a"><path fill="#fff" d="M0 0h207v207H0z"/></clipPath></defs></svg>