<svg width="1980" height="53" fill="none" xmlns="http://www.w3.org/2000/svg"><g clip-path="url(#a)"><mask id="b" style="mask-type:alpha" maskUnits="userSpaceOnUse" x="0" y="0" width="1980" height="53"><path d="M1980 0H0v53h1980V0Z" fill="#D9D9D9"/></mask><g mask="url(#b)"><path fill-rule="evenodd" clip-rule="evenodd" d="M1980-431.413V-633.099c-197.48 33.507-305.55 31.006-495 0-194.65-25.045-303.02-24.662-495 0-195.841 26.37-304.527 29.536-495 0-193.311-29.834-301.691-31.672-495 0V-434h-1V31.419c251.559-34.03 414.851-30.382 673.5 0 253.555 28.415 396.67 28.856 653.75 0 250.21-35.725 392.94-38.606 653.75 0v-462.832Z" fill="#304566"/></g></g><defs><clipPath id="a"><path fill="#fff" d="M0 0h1980v53H0z"/></clipPath></defs></svg>