<svg width="1980" height="86" fill="none" xmlns="http://www.w3.org/2000/svg"><g clip-path="url(#a)"><path d="M-.379 86.168H1980V28c-204.75-36.521-202.73-35.222-407.49-.82-201.74 34.06-316.86 30.408-524.29 0-203.352-28.438-318.13-28.88-524.301 0C323.253 62.935 208.786 66.639-.379 28v58.168Z" fill="#445C7E"/><path d="M1980 85.5H1.08L0 55.901c193.309-31.672 301.689-29.835 495 0 190.473 29.536 299.159 26.37 495 0 191.98-24.662 300.35-25.045 495 0 189.45 31.006 297.52 33.507 495 0V85.5Z" fill="#304566"/></g></svg>