<svg width="80" height="81" fill="none" xmlns="http://www.w3.org/2000/svg"><g clip-path="url(#a)" fill="#FFF8B8"><path d="M34.848 1.434c.315-.062.608-.056.871 0 6.513-1.148 13.006-.416 18.483 3.618 5.4 3.977 8.527 10.777 8.9 17.363C63.875 36.1 49.86 46.16 40.494 53.704c-.068.054-.14.091-.209.137-.129.205-.306.379-.512.522.343 1.221.749 2.425 1.243 3.593.278.656.325 1.366.047 1.951-.263.695-.862 1.262-1.805 1.316-1.293.072-2.583.163-3.875.257-.805 3.557-3.405 5.887-6.425 7.843-3.84 2.485-6.432 3.856-3.62 8.587 1.346 2.261-2.174 4.31-3.515 2.055-2.306-3.876-2.942-7.977.712-11.196 2.801-2.468 6.733-3.686 8.378-6.958-1.154.083-2.307.161-3.463.227-.101.006-.191-.006-.285-.012-.042.002-.08.012-.123.012-1.029 0-2.144-.929-2.037-2.036.216-2.219.61-4.331 1.408-6.377-.037-.042-.076-.082-.111-.13C14.807 37.974 9.88 6.38 34.848 1.436Zm1.596 55.897a28.462 28.462 0 0 1-.778-2.49c-.011-.043-.011-.08-.02-.123-1.785.013-3.57.058-5.354.135a13.926 13.926 0 0 0-.897 2.982c2.35-.157 4.699-.34 7.05-.504Zm-7.068-6.516c2.823-.148 5.648-.175 8.474-.18 8.032-6.45 17.821-13.426 20.704-23.827 1.693-6.11-1.003-12.706-5.206-17.133-4.552-4.795-11.502-5.382-17.62-4.11a2.155 2.155 0 0 1-.733.021c-20.769 4.944-15.077 31.873-5.619 45.23Z"/><path d="M40.915 7.454c2.696-.257 2.672 3.947 0 4.2-8.033.763-12.745 7.325-12.391 15.122.122 2.71-4.078 2.697-4.2 0-.466-10.255 6.35-18.35 16.59-19.322Z"/></g><defs><clipPath id="a"><path fill="#fff" transform="matrix(-1 0 0 1 80 .943)" d="M0 0h80v80H0z"/></clipPath></defs></svg>