<svg width="160" height="161" fill="none" xmlns="http://www.w3.org/2000/svg"><g clip-path="url(#a)" fill="#B3D0FD"><path d="M112.738 83.423a4.397 4.397 0 0 0-.355-.167c.438-12.408-.046-23.487-1.473-33.843-1.985-14.375-6.39-34.962-21.69-47.714a3.153 3.153 0 0 0-2.066-.756C78.78.943 63.58 34.62 63.44 34.959c-6.124 14.869-9.636 29.192-10.733 43.787a102.73 102.73 0 0 0-.193 3.311c-.204.06-.4.133-.591.222-16.646 7.855-26.51 25.833-27.074 49.345l-.239.546c-.454 1.125-.376 2.235.227 3.128.668.993 1.933 1.61 3.297 1.61 1.556 0 2.899-.786 3.608-2.107.313-.41.53-.883.65-1.414 4.398-10.059 13.073-18.196 24.447-22.945.175.031.37.052.588.052 1.424-.002 2.847-.018 4.27-.033l1.017-.01v8.904c0 .289.033.573.098.867-.124 1.872.946 3.397 2.759 3.913.501.142 1.006.265 1.508.386l.05.013c-.753 11.574 5.42 19.721 11.95 28.335 1.463 1.931 2.974 3.927 4.495 6.069.597 1.219 1.975 2.004 3.53 2.004 1.71 0 3.15-.976 3.762-2.549 1.28-3.298 2.807-6.39 4.285-9.386 3.575-7.237 6.958-14.089 6.551-22.876 1.627-.245 3.314-1.429 3.518-3.638.384-4.145.487-8.23.504-12.999l.731-.023a2.1 2.1 0 0 0 .299-.036c13.165 2.006 19.226 13.478 20.508 23.572.301 2.354 2.336 3.584 4.194 3.584 1.73 0 3.083-1.001 3.412-2.509.232-.448.379-.939.435-1.463 2.323-21.985-6.112-40.374-22.564-49.196Zm-78.27 33.307c2.243-8.872 7.178-19.515 17.975-25.993.113 4.191.438 8.52.965 12.894-7.518 3.293-13.873 7.69-18.94 13.099Zm53.309 30.249c-.49.977-.982 1.957-1.467 2.952-.323-.409-.647-.817-.973-1.227-5.42-6.807-11.015-13.841-10.712-22.549.935.154 1.913.295 2.963.429.882 4.329 2.74 8.394 5.658 12.401.59 1.55 2.12 2.662 3.693 2.662.962 0 1.86-.4 2.597-1.155a38.877 38.877 0 0 0 2.489-2.806c-1.153 3.126-2.67 6.151-4.248 9.293Zm-2.092-19.755a80.65 80.65 0 0 0 4.143-.015 38.194 38.194 0 0 1-2.503 3.979 24.48 24.48 0 0 1-1.64-3.964Zm11.985-8.351c-8.863 1.22-18.037.699-27.16-1.526v-6.961c9.23-.141 18.6-.395 27.411-.66-.012 2.62-.06 5.847-.251 9.147Zm5.651-16.813c-1.108.259-5.829.782-25.774.782-7.58 0-14.324-.083-16.42-.136-3.725-32.776 4.943-63.903 25.774-92.54 11.867 12.103 15.218 29.976 16.804 44.279 1.531 13.79 1.408 28.939-.384 47.615Zm7.749.574c.35-3.632.642-7.222.872-10.701 7.122 4.74 11.923 11.536 14.315 20.256-4.013-4.651-9.193-7.918-15.187-9.555Z"/><path d="M96.422 49.312c-2.533-3.346-6.102-5.19-10.045-5.19-5.896 0-11.744 4.108-14.9 10.463-1.611 3.248-2.492 7.074-2.617 11.374-.14 4.9 1.9 10.132 5.326 13.658 2.654 2.733 5.836 4.176 9.202 4.176 1.334 0 2.695-.233 4.038-.692 4.139-1.416 7.716-4.917 10.07-9.86 2.927-6.14 3.524-13.626 1.525-19.065-.681-1.846-1.555-3.483-2.6-4.864ZM91.449 66.82c-.776 3.534-3.763 6.91-6.95 7.853-2.781.82-5.196-.407-6.71-3.471-1.74-3.523-1.007-9.137.566-12.632 1.007-2.245 4.628-6.366 7.52-6.366.337 0 .663.059.965.174 4.62 1.764 5.657 9.658 4.609 14.442Z"/></g><defs><clipPath id="a"><path fill="#fff" transform="translate(0 .943)" d="M0 0h160v160H0z"/></clipPath></defs></svg>