<svg width="120" height="121" fill="none" xmlns="http://www.w3.org/2000/svg"><g clip-path="url(#a)" fill="#FFD3BD"><path d="M67.729 1.68a3.233 3.233 0 0 0-1.308 0c-9.769-1.723-19.509-.624-27.723 5.426-8.1 5.966-12.79 16.165-13.35 26.045-1.16 20.526 19.86 35.617 33.911 46.933.101.082.21.138.313.205.194.31.46.569.768.784a45.26 45.26 0 0 1-1.864 5.39c-.417.984-.488 2.048-.07 2.927.394 1.04 1.292 1.892 2.707 1.972 1.94.11 3.874.245 5.812.387 1.209 5.335 5.108 8.831 9.639 11.764 5.759 3.728 9.647 5.784 5.428 12.88-2.019 3.393 3.262 6.464 5.274 3.083 3.458-5.814 4.413-11.965-1.068-16.794-4.203-3.702-10.1-5.529-12.568-10.437 1.732.124 3.462.242 5.195.34.152.01.287-.008.427-.018.063.004.12.019.185.019 1.543 0 3.216-1.393 3.055-3.055-.323-3.327-.914-6.496-2.112-9.564.056-.064.114-.124.167-.195C97.79 56.488 105.18 9.1 67.73 1.68Zm-2.395 83.845c.44-1.226.84-2.466 1.168-3.734.016-.066.016-.122.028-.185 2.678.02 5.355.086 8.032.202.627 1.432 1.053 2.937 1.346 4.473-3.525-.235-7.048-.51-10.574-.756Zm10.602-9.773c-4.235-.223-8.472-.264-12.711-.27-12.049-9.675-26.732-20.14-31.057-35.742-2.538-9.163 1.505-19.058 7.81-25.7 6.827-7.19 17.254-8.072 26.43-6.165.393.082.757.078 1.1.033 31.152 7.416 22.615 47.81 8.428 67.844Z"/><path d="M58.628 10.709c-4.045-.385-4.009 5.92 0 6.3 12.05 1.145 19.117 10.988 18.586 22.684-.183 4.064 6.118 4.046 6.301 0 .698-15.383-9.525-27.524-24.887-28.984Z"/></g><defs><clipPath id="a"><path fill="#fff" transform="translate(0 .943)" d="M0 0h120v120H0z"/></clipPath></defs></svg>