<svg width="370" height="370" fill="none" xmlns="http://www.w3.org/2000/svg"><g clip-path="url(#a)"><path d="M229.771 9.022a9.812 9.812 0 0 0-2.592.177 10.375 10.375 0 0 0-2.117-.177c-61.689.904-115.381 29.888-124.531 95.014-8.295 59.037 18.161 120.664 54.109 166.715-5.519 4.096-9.957 9.529-10.381 16.723-.432 7.303 3.377 13.098 8.36 17.821-4.547 3.886-7.987 8.838-8.36 15.131-.609 10.306 7.167 17.64 14.862 23.138.298.213.593.346.888.51-2.212 2.697-3.755 5.852-3.978 9.59-.515 8.661 6.027 14.829 12.497 19.452.44.317.88.546 1.32.755 1.263 1.306 3.011 2.206 5.312 2.303 32.882 1.346 65.648 2.061 97.751-6.217 2.081-.543 3.508-1.66 4.416-3.039.76-.824 1.378-1.856 1.776-3.15 2.379-7.83 1.451-15.739-2.584-22.338a226.811 226.811 0 0 0 6.755-1.624c2.475-.639 4.167-1.973 5.252-3.613.9-.981 1.636-2.207 2.106-3.749 2.941-9.679 1.591-19.437-3.701-27.466.622-.527 1.169-1.102 1.595-1.741.9-.98 1.636-2.206 2.106-3.749 3.206-10.537 1.366-21.192-5.168-29.58 70.653-82.652 86.068-250.864-55.693-260.886Zm-59.798 319.463a10.274 10.274 0 0 0-1.35-1.182c-1.813-1.298-3.369-2.749-4.88-4.397-.424-.462-.53-1.306-.616-1.491.612-1.676 2.929-3.199 5.188-4.389.808.214 1.659.362 2.614.362 33.403-.056 66.78-.828 100.153-2.251 1.627 2.347 2.258 4.851 2.149 7.628-33.989 7.874-68.549 7.11-103.258 5.72Zm0-32.953a10.262 10.262 0 0 0-1.35-1.18c-1.813-1.299-3.369-2.75-4.88-4.398-.424-.466-.53-1.31-.616-1.495.612-1.671 2.929-3.195 5.188-4.385.808.213 1.659.362 2.614.362 33.403-.056 66.78-.829 100.153-2.251 1.627 2.343 2.258 4.851 2.149 7.628-33.989 7.87-68.549 7.111-103.258 5.719Zm7.673 64.904a8.496 8.496 0 0 0-1.135-.993c-1.528-1.089-2.836-2.311-4.103-3.693-.358-.394-.444-1.102-.519-1.258.519-1.407 2.465-2.685 4.366-3.689a8.39 8.39 0 0 0 2.202.305 2065.01 2065.01 0 0 0 84.207-1.893c1.37 1.969 1.896 4.074 1.808 6.414-28.577 6.62-57.638 5.976-86.826 4.807Zm92.542-101.497c-1.267 1.431-1.95 2.962-2.259 4.497-12.602.523-25.207.893-37.813 1.226 1.696-24.986 1.969-49.997 1.997-75.033 17.279-15.407 28.936-35.454 34.192-58.057 2.745-11.814-15.406-16.832-18.155-5.003-4.295 18.473-13.083 34.171-26.467 47.108-14.18-11.283-24.327-26.228-29.125-43.968-3.168-11.709-21.332-6.734-18.155 5.004 6.234 23.055 20.036 41.912 38.875 56.061-.038 24.795-.326 49.569-2.021 74.31-12.373.234-24.746.454-37.12.491a10.48 10.48 0 0 0-1.258-1.926c-32.969-40.001-55.605-91.67-54.835-144.094.91-62.169 49.7-90.867 107.018-91.705a9.837 9.837 0 0 0 2.54-.383c.679.193 1.395.326 2.17.383 125.357 8.865 101.03 162.567 40.416 231.089Z" fill="#fff"/></g><defs><clipPath id="a"><path fill="#fff" d="M0 0h370v370H0z"/></clipPath></defs></svg>