<svg width="1980" height="92" fill="none" xmlns="http://www.w3.org/2000/svg"><g clip-path="url(#a)"><mask id="b" style="mask-type:alpha" maskUnits="userSpaceOnUse" x="0" y="0" width="1980" height="92"><path d="M1980 0H0v92h1980V0Z" fill="#D9D9D9"/></mask><g mask="url(#b)" fill-rule="evenodd" clip-rule="evenodd"><path d="M1244.65 64.317C1241.7 79.65 1239.51 91 1227.15 91c-12.82 0-20.77-11.349-31.23-26.279-4.49-6.412-9.45-13.485-15.45-20.603-57.96-3.08-119.36-9.924-192.784-20.04-195.802-25.74-306.322-26.14-504.843 0-193.22 32.36-303.439 34.97-504.843 0V444c265.995-40.293 411.563-24.58 666.75 12.705 262.188 30.117 408.15 29.656 666.75 0 263.79-31.71 410.19-35.517 666.75 0 260.38 35.876 406.37 38.085 666.75 0V214.177h-647.63v-190.1c-197.15-33.055-307.69-31.137-504.84 0-44.73 7.1-85.04 12.388-123.04 15.988-2.6.514-5.42.755-8.4.772-38.97 3.467-75.62 5.135-112.29 5.139-1.86 6.411-3.06 12.65-4.15 18.341Z" fill="#B3D0FD"/><path d="M1244.65 64.317C1241.7 79.65 1239.51 91 1227.15 91c-12.82 0-20.77-11.349-31.23-26.279-6.38-9.112-13.7-19.557-23.63-29.572-12.79-12.9-33.93-9.383-56.68-5.598-23.85 3.969-49.48 8.231-69.1-5.822-3.13-2.239-5.04-4.374-5.93-6.406A3383.42 3383.42 0 0 0 990 23.608c-195.841 26.985-304.527 30.226-495 0-193.311-30.53-301.69-32.41-495 0v186.393h-635V447.8c255.306 37.343 398.443 35.177 653.75 0 251.559-34.824 395.101-31.091 653.75 0 253.556 29.078 396.67 29.53 653.75 0 250.21-36.558 392.94-39.507 653.75 0V23.608c-197.48 34.29-305.55 31.73-495 0-34.98-4.605-67.17-8.37-97.55-11.302.8 3.395.76 7.188-.31 11.423-6.64 26.363-41.92 16.67-74.61 7.69-26.34-7.239-51.01-14.014-57.63-1.074-5.96 11.634-8.28 23.697-10.25 33.972Z" fill="#F5C956"/></g></g><defs><clipPath id="a"><path fill="#fff" d="M0 0h1980v92H0z"/></clipPath></defs></svg>