<svg width="48" height="46" fill="none" xmlns="http://www.w3.org/2000/svg"><path d="M47.983 2.63a1.415 1.415 0 0 0-.044-.328c.008-.66-.412-1.328-1.264-1.328h-3.312c-.064 0-.121.01-.18.018-.362-.07-.754.02-1.093.365-.763.78-1.412 1.662-1.998 2.581H38.38c-.474-.632-.884-1.312-1.291-1.988-.12-.526-.525-.976-1.223-.976h-21.62c-.071 0-.135.011-.2.02-.4-.057-.819.041-1.072.363-.643.816-1.177 1.653-1.59 2.58H9.136c-.343-.723-.677-1.45-1.083-2.141-.035-.06-.076-.107-.115-.158C7.783 1.173 7.387.8 6.748.8 5.266.8 2.92.31 1.542.75-.95 1.542.307 5.187.39 7.027c.125 2.8.024 5.627.038 8.43.035 6.374.1 12.75.183 19.124.038 2.892.071 5.783.124 8.673.008.412.171.722.411.932.089.567.504 1.073 1.246 1.073 1.281 0 2.563-.006 3.835-.174.1-.013.195-.034.29-.06.543.022 1.101-.243 1.32-.9.258-.776.49-1.553.624-2.352h2.536c.223.523.361 1.07.374 1.656.004.214.052.4.128.56.158.474.551.874 1.18.922 6.325.487 15.8.522 22.141.523.125 0 .237-.018.343-.044.536.019 1.075-.251 1.267-.916.245-.849.514-1.688.79-2.527h1.864c.342.653.684 1.306.927 2.004.032.092.074.18.121.262.174.442.55.811 1.14.872 1.565.161 3.134.174 4.706.174.128 0 .243-.02.351-.047.666.017 1.331-.402 1.306-1.26-.305-10.465.49-30.856.349-41.321Zm-2.986 40.006a47.545 47.545 0 0 1-2.742-.086c-.369-.88-.82-1.718-1.25-2.57-.24-.476-.794-.694-1.303-.63-.058-.008-.113-.018-.175-.018h-3.313c-.756 0-1.17.526-1.248 1.107-.004.01-.01.017-.013.027-.26.782-.511 1.565-.753 2.352-5.732-.003-14.599-.05-20.319-.44a7.75 7.75 0 0 0-.946-2.572c-.293-.507-.757-.673-1.202-.62a1.428 1.428 0 0 0-.276-.028H7.273c-.765 0-1.178.538-1.25 1.124-.032.11-.055.227-.058.358-.015.652-.172 1.28-.363 1.899-.752.07-1.507.095-2.263.102-.172-9.5-.332-28.938-.338-38.44 0-.262-.067-.482-.174-.662v-.122h3.132c.449.81.82 1.66 1.231 2.49.216.437.7.65 1.172.635.044.004.085.013.131.013h3.662c.466 0 .799-.203 1.007-.492.19-.166.34-.387.428-.642.226-.65.557-1.264.954-1.83h20.483c.513.83 1.051 1.637 1.658 2.407a.987.987 0 0 0 .532.334c.194.137.44.223.741.223h2.964c.696 0 1.1-.446 1.222-.97.434-.705.902-1.376 1.448-1.994h1.78c.08 9.704-.576 29.339-.376 39.045Z" fill="#283D5C"/><path d="M11.805 9.518H7.272c-.963 0-1.373.85-1.238 1.582-.041.128-.07.266-.07.423v2.367c-.35.774.023 1.905 1.134 1.905 1.513 0 3.027-.001 4.533-.174.091-.01.18-.028.266-.05.621-.039 1.216-.454 1.216-1.258v-2.965c0-.137-.023-.26-.055-.375.069-.699-.345-1.455-1.253-1.455Zm-1.307 3.584c-.64.04-1.278.06-1.919.068v-1.037h1.918v.969ZM11.805 19.979H7.272c-.963 0-1.373.85-1.238 1.582-.041.128-.07.266-.07.423v2.367c-.35.774.023 1.905 1.134 1.905 1.513 0 3.027-.001 4.533-.174.091-.01.18-.028.266-.05.621-.039 1.216-.455 1.216-1.258V21.81c0-.138-.023-.26-.055-.375.069-.7-.345-1.456-1.253-1.456Zm-1.307 3.584c-.64.04-1.278.06-1.919.068v-1.037h1.918v.969ZM11.968 30H7.435c-.962 0-1.373.851-1.238 1.582a1.35 1.35 0 0 0-.07.423v2.367c-.35.775.023 1.905 1.134 1.905 1.513 0 3.027-.001 4.533-.174.091-.01.18-.028.266-.05.622-.038 1.216-.454 1.216-1.258v-2.964c0-.138-.023-.26-.055-.375.07-.7-.345-1.456-1.253-1.456Zm-1.307 3.584c-.639.041-1.278.06-1.918.069v-1.038h1.918v.97ZM40.05 9.518h-4.533c-.962 0-1.373.85-1.238 1.582-.041.128-.07.266-.07.423v2.367c-.35.774.023 1.905 1.134 1.905 1.513 0 3.027-.001 4.533-.174.09-.01.18-.028.266-.05.622-.039 1.216-.454 1.216-1.258v-2.965c0-.137-.023-.26-.055-.375.069-.699-.345-1.455-1.253-1.455Zm-1.307 3.584c-.639.04-1.279.06-1.919.068v-1.037h1.919v.969ZM40.05 19.979h-4.533c-.962 0-1.373.85-1.238 1.582-.041.128-.07.266-.07.423v2.367c-.35.774.023 1.905 1.134 1.905 1.513 0 3.027-.001 4.533-.174.09-.01.18-.028.266-.05.622-.039 1.216-.455 1.216-1.258V21.81c0-.138-.023-.26-.055-.375.069-.7-.345-1.456-1.253-1.456Zm-1.307 3.584c-.639.04-1.279.06-1.919.068v-1.037h1.919v.969ZM40.05 30.44h-4.533c-.962 0-1.373.85-1.238 1.582a1.35 1.35 0 0 0-.07.423v2.367c-.35.774.023 1.905 1.134 1.905 1.513-.001 3.027-.002 4.533-.175.09-.01.18-.027.266-.05.622-.038 1.216-.454 1.216-1.257V32.27c0-.137-.023-.26-.055-.375.069-.699-.345-1.455-1.253-1.455Zm-1.307 3.584c-.639.04-1.279.06-1.919.068v-1.037h1.919v.969Z" fill="#283D5C"/></svg>