<svg width="14" height="19" fill="none" xmlns="http://www.w3.org/2000/svg"><path d="M7.172.496c3.305 0 6.328 2.285 6.328 5.766 0 3.27-1.688 6.926-5.414 6.926-.914 0-2.004-.458-2.461-1.266-.773 3.164-.738 3.656-2.496 6.082-.176.07-.14.07-.246-.07-.07-.668-.14-1.301-.14-1.97 0-2.144.984-5.273 1.476-7.347-.282-.562-.352-1.195-.352-1.793 0-2.812 3.305-3.234 3.305-.914 0 1.371-.95 2.672-.95 4.008 0 .879.774 1.512 1.653 1.512 2.426 0 3.164-3.48 3.164-5.344 0-2.496-1.758-3.867-4.184-3.867-2.777 0-4.921 2.004-4.921 4.816 0 1.371.843 2.074.843 2.39 0 .282-.21 1.231-.562 1.231C1.37 10.656 0 9.25 0 6.79 0 2.887 3.55.496 7.172.496Z" fill="#304566"/></svg>