<svg width="20" height="17" fill="none" xmlns="http://www.w3.org/2000/svg"><path d="M16.469 6.422c1.933 0 2.601 2.601.843 3.516.07.28.106.562.106.878 0 2.954-3.34 5.309-7.418 5.309s-7.383-2.355-7.383-5.309c0-.316 0-.597.07-.879-1.792-.878-1.124-3.515.81-3.515.526 0 1.019.21 1.37.562 1.23-.843 2.918-1.406 4.781-1.511L10.703.656c.07-.176.211-.316.387-.246l3.445.738c.211-.421.703-.773 1.23-.773a1.41 1.41 0 0 1 1.407 1.406 1.41 1.41 0 0 1-1.406 1.407 1.373 1.373 0 0 1-1.371-1.372L11.3 1.113l-.985 4.395c1.864.035 3.551.597 4.817 1.476a1.859 1.859 0 0 1 1.336-.562ZM5.535 10.113a1.41 1.41 0 0 0 1.406 1.407c.739 0 1.372-.633 1.372-1.407 0-.773-.633-1.37-1.372-1.37-.773 0-1.406.597-1.406 1.37Zm7.524 3.305a.34.34 0 0 0 0-.492c-.106-.106-.352-.106-.457 0-1.02 1.02-4.254 1.02-5.239 0-.14-.106-.351-.106-.457 0a.34.34 0 0 0 0 .492c1.266 1.266 4.887 1.266 6.153 0Zm-.036-1.898a1.41 1.41 0 0 0 1.407-1.407c0-.773-.633-1.37-1.407-1.37-.738 0-1.37.597-1.37 1.37 0 .774.632 1.407 1.37 1.407Z" fill="#304566"/></svg>