<svg width="12" height="19" fill="none" xmlns="http://www.w3.org/2000/svg"><path d="M10.863 17.16c-.457.492-1.758 1.09-3.41 1.09-4.254 0-5.168-3.094-5.168-4.922V8.266H.598a.378.378 0 0 1-.352-.352v-2.39c0-.247.176-.493.422-.563 2.18-.774 2.848-2.672 2.953-4.113.035-.387.246-.598.563-.598H6.68c.21 0 .351.176.351.352V4.68H9.95c.211 0 .352.14.352.351V7.88c0 .21-.14.351-.352.351H7.031v4.676c0 1.23.809 1.899 2.39 1.266.142-.07.317-.106.423-.07.14.035.21.105.281.28l.773 2.25c.07.177.106.387-.035.528Z" fill="#304566"/></svg>