<svg width="20" height="12" fill="none" xmlns="http://www.w3.org/2000/svg"><path d="M19.16 1.398c-.281 1.196-2.812 4.782-2.812 4.782-.211.351-.317.527 0 .914.14.176 2.777 2.707 3.164 3.902.175.598-.106.879-.703.879h-2.075c-.773 0-1.02-.598-2.425-2.004C13.079 8.676 12.55 8.5 12.234 8.5c-.632 0-.527.246-.527 2.602 0 .492-.176.773-1.477.773-2.18 0-4.605-1.3-6.328-3.762-2.566-3.62-3.27-6.328-3.27-6.89 0-.317.141-.598.704-.598H3.41c.527 0 .738.246.95.809 1.019 2.953 2.706 5.554 3.41 5.554.28 0 .386-.14.386-.808V3.12c-.07-1.406-.808-1.512-.808-2.004 0-.246.175-.492.527-.492h3.234c.457 0 .598.246.598.773v4.114c0 .422.211.597.316.597.282 0 .493-.175.985-.632 1.476-1.688 2.531-4.254 2.531-4.254.14-.317.387-.598.914-.598h2.074c.633 0 .739.352.633.773Z" fill="#304566"/></svg>